<svg width="43" height="36" viewBox="0 0 43 36" fill="none" xmlns="http://www.w3.org/2000/svg">
<path d="M18.96 0.448083L3.1296 6.9984C2.24928 7.36272 2.2584 8.61336 3.14424 8.96448L19.0406 15.2683C20.4373 15.8223 21.9928 15.8223 23.3894 15.2683L39.2861 8.96424C40.1717 8.61336 40.1813 7.36296 39.3005 6.99864L23.4706 0.447843C22.0263 -0.149769 20.404 -0.149769 18.9598 0.447843" fill="#FCB400"/>
<path d="M22.6255 18.7104V34.4585C22.6255 35.2073 23.3808 35.7204 24.077 35.4444L41.7905 28.5689C41.988 28.4906 42.1575 28.3547 42.2769 28.1789C42.3963 28.0031 42.4601 27.7955 42.4601 27.583V11.8351C42.4601 11.0861 41.7048 10.5732 41.0086 10.8492L23.2951 17.7247C23.0976 17.8031 22.9282 17.939 22.8088 18.1147C22.6894 18.2905 22.6255 18.4979 22.6255 18.7104Z" fill="#18BFFF"/>
<path d="M18.4891 19.523L13.2322 22.0613L12.6984 22.3193L1.60128 27.6365C0.89808 27.9758 0 27.4632 0 26.6817V11.9011C0 11.6184 0.14496 11.3743 0.33936 11.1907C0.419112 11.1113 0.50959 11.0434 0.60816 10.9891C0.87312 10.83 1.25136 10.7875 1.57296 10.9147L18.4008 17.5824C19.2562 17.9217 19.3234 19.1201 18.4891 19.523Z" fill="#F82B60"/>
<path d="M18.4891 19.523L13.2322 22.0613L0.339363 11.1905C0.419131 11.1111 0.509608 11.0434 0.608163 10.9891C0.873123 10.83 1.25136 10.7875 1.57296 10.9147L18.4008 17.5824C19.2562 17.9217 19.3234 19.1201 18.4891 19.523Z" fill="black" fill-opacity="0.25"/>
</svg>
