<svg width="256" height="256" viewBox="0 0 256 256" fill="none" xmlns="http://www.w3.org/2000/svg">
<path d="M255.879 127.868C255.879 198.323 198.769 255.433 128.313 255.433C57.8629 255.433 0.747002 198.323 0.747002 127.868C0.747002 57.4179 57.8631 0.302002 128.313 0.302002C198.769 0.302002 255.879 57.4181 255.879 127.868Z" fill="#1A1918"/>
<path d="M130.46 78.2289L163.472 159.705L113.608 120.427L130.46 78.2289ZM189.105 178.474L138.326 56.2719C136.876 52.7475 133.978 50.8826 130.46 50.8826C126.936 50.8826 123.826 52.7475 122.377 56.2719L66.6437 190.312H85.709L107.771 135.047L173.61 188.236C176.258 190.378 178.169 191.346 180.652 191.346C185.626 191.346 189.974 187.617 189.974 182.235C189.974 181.359 189.665 179.969 189.105 178.474Z" fill="white"/>
</svg>
