<svg width="196" height="175" viewBox="0 0 196 175" fill="none" xmlns="http://www.w3.org/2000/svg">
<path d="M59.1241 153.847C51.8419 148.119 44.0738 142.628 38.7655 134.895C27.596 121.258 18.9961 105.47 13.1168 88.8783C9.56315 78.0897 8.3461 66.523 3.765 56.1512C1.364 52.3771 1.575 48.4267 3.42112 45.123C3.46953 44.8964 3.58176 44.7136 3.75064 44.5676C5.65581 41.5358 8.95467 39.1156 12.8377 37.9888C16.5115 37.2837 22.971 33.8186 15.1737 36.2953C8.18308 41.4241 7.50654 31.6397 14.6748 31.0201C19.5669 30.3698 21.3677 26.3651 19.6948 22.7598C14.4435 19.3354 32.4286 15.5718 23.3792 10.462C13.9522 0.291382 36.5655 -1.6665 30.9865 9.88426C29.651 18.7663 46.7877 8.25635 42.8116 18.5132C46.8529 23.4389 57.9452 19.6343 57.67 26.5446C63.5571 26.9493 65.5775 31.9027 71.104 32.2829C76.8316 34.8695 87.2148 36.9077 89.1638 43.3621C83.4813 47.8609 70.3229 34.0694 69.6907 46.5225C71.4073 64.9186 70.97 83.8689 77.7006 101.387C80.8841 111.995 88.6018 120.345 95.5717 128.607C102.24 136.698 111.274 142.394 120.481 147.19C128.557 150.999 137.264 153.526 146.066 155.111C149.636 152.38 155.939 142.228 161.509 146.509C161.773 151.319 150.455 156.564 160.976 156.032C167.154 154.169 171.44 160.81 176.527 154.819C181.214 160.372 196.009 151.272 192.674 162.621C188.164 165.53 181.587 163.772 177.07 167.775C169.623 164.055 163.693 171.103 155.448 170.212C146.292 171.852 136.977 172.514 127.693 172.528C112.464 171.325 96.9119 170.818 82.4238 165.515C74.2621 163.144 66.2973 158.496 59.1241 153.847Z" fill="white"/>
<mask id="path-2-outside-1_21_54" maskUnits="userSpaceOnUse" x="0" y="0" width="196" height="175" fill="black">
<rect fill="white" width="196" height="175"/>
<path d="M59.1241 153.847C51.8419 148.119 44.0738 142.628 38.7655 134.895C27.596 121.258 18.9961 105.47 13.1168 88.8783C9.56315 78.0897 8.3461 66.523 3.765 56.1512C-1.02729 48.6182 4.58622 40.3833 12.8377 37.9888C16.5115 37.2837 22.971 33.8186 15.1737 36.2953C8.18308 41.4241 7.50654 31.6397 14.6748 31.0201C19.5669 30.3698 21.3677 26.3651 19.6948 22.7598C14.4435 19.3354 32.4286 15.5718 23.3792 10.462C13.9522 0.291382 36.5655 -1.6665 30.9865 9.88426C29.651 18.7663 46.7877 8.25635 42.8116 18.5132C46.8529 23.4389 57.9451 19.6343 57.67 26.5446C63.5571 26.9493 65.5775 31.9027 71.104 32.2829C76.8315 34.8695 87.2148 36.9077 89.1638 43.3621C83.4813 47.8609 70.3229 34.0694 69.6907 46.5225C71.4073 64.9186 70.97 83.8689 77.7006 101.387C80.8841 111.995 88.6018 120.345 95.5717 128.607C102.24 136.698 111.274 142.394 120.481 147.19C128.557 150.999 137.264 153.526 146.066 155.111C149.636 152.38 155.939 142.228 161.509 146.509C161.773 151.319 150.455 156.564 160.976 156.032C167.154 154.169 171.44 160.81 176.527 154.819C181.214 160.372 196.009 151.272 192.674 162.621C188.164 165.53 181.587 163.772 177.07 167.775C169.623 164.055 163.693 171.103 155.448 170.212C146.292 171.852 136.977 172.514 127.693 172.528C112.464 171.325 96.9119 170.818 82.4238 165.515C74.2621 163.144 66.2973 158.496 59.1241 153.847ZM71.9862 159.42C79.9558 162.866 87.7486 166.499 96.4827 167.594C110.34 169.522 124.649 172.486 138.556 169.782C132.262 166.94 125.755 170.889 119.485 167.75C111.964 169.368 103.894 167.338 96.249 166.338C87.5551 162.465 78.1728 159.802 70.0313 154.776C59.8582 151.06 75.2927 159.541 78.04 160.228C84.3996 163.837 71.0466 158.377 69.1641 156.877C63.8377 153.889 63.1589 154.513 68.6367 157.548C69.74 158.193 70.8303 158.87 71.9862 159.42ZM56.8215 148.703C64.5442 151.563 56.7874 143.272 53.2485 143.754C51.6806 141.034 47.2582 139.315 50.3778 137.854C44.7663 139.802 44.4995 130.446 41.8618 131.783C35.9253 129.908 39.5513 123.268 32.4799 119.19C31.8344 114.893 25.4541 111.166 23.4191 104.685C22.5203 101.366 16.2107 91.8367 20.0867 100.705C23.3869 109.243 29.1933 116.554 34.0254 123.857C37.7775 130.81 42.2079 138.077 49.0411 142.415C51.3446 144.625 53.5686 148.01 56.8215 148.703ZM34.5738 124.277C35.9862 126.801 34.8433 123.11 34.5738 124.277ZM66.0702 152.132C67.7803 151.366 63.611 151.167 66.0702 152.132ZM70.2625 153.661C69.8283 151.55 68.3487 154.842 70.2625 153.661ZM75.5099 155.85C78.0082 153.471 71.6599 154.35 75.5099 155.85ZM84.5038 160.863C86.0219 158.619 79.6451 160.016 84.5038 160.863ZM67.2331 148.824C71.1134 146.313 62.2213 148.789 67.2331 148.824ZM71.1697 150.786C71.0597 149.459 69.7668 151.381 71.1697 150.786ZM90.8445 163.066C94.0073 165.062 109.314 167.441 99.7292 163.885C98.1255 164.223 81.9566 159.312 90.8445 163.066ZM59.6102 138.74C59.3027 137.409 54.7008 137.271 59.6102 138.74ZM68.7695 144.078C71.1532 142.416 63.8219 142.796 68.7695 144.078ZM76.4737 148.802C79.8944 147.513 70.9246 147.507 76.4737 148.802ZM55.8831 134.681C59.5945 137.527 70.8508 135.046 61.5669 132.982C57.3414 130.73 47.818 129.188 54.3093 134.34L55.8831 134.681ZM81.6918 150.433C83.2378 147.799 75.2089 148.929 81.6918 150.433ZM73.8494 144.201C82.9246 146.768 66.2179 138.461 71.6103 143.256L72.8054 143.797L73.8494 144.201ZM89.5729 153.288C81.8099 152.103 98.1676 153.37 89.5729 153.288ZM52.5762 129.709C52.2405 128.108 50.4552 129.843 52.5762 129.709ZM104.112 161.444C104.341 158.552 101.307 163.595 104.112 161.444ZM67.2434 138.691C66.7235 137.168 64.5579 138.628 67.2434 138.691ZM53.3913 128.704C58.3255 128.408 46.636 126.53 53.3913 128.704ZM36.9816 118.097C36.3674 115.732 31.6124 113.845 36.9816 118.097ZM80.0609 145.436C79.6358 145.662 79.1572 144.406 80.0609 145.436ZM106.875 161.891C106.789 160.316 105.415 162.487 106.875 161.891ZM77.6879 142.986C78.1705 140.957 73.4805 142.372 77.6879 142.986ZM57.7118 130.326C61.3826 129.933 51.8314 127.844 57.7118 130.326ZM91.5032 151.323C97.2236 149.057 85.9277 150.217 91.5032 151.323ZM73.9263 139.392C80.5191 140.242 66.0819 134.907 72.4798 138.914L73.9263 139.392ZM96.8393 153.48C102.994 149.801 100.965 162.097 107.282 154.519C113.513 149.97 101.901 160.144 109.58 155.33C115.134 151.616 123.337 157.091 128.519 158.877C132.245 158.694 135.868 162.1 139.688 160.028C147.043 158.047 125.307 157.09 131.005 153.576C124.276 155.534 119.304 151.241 115.993 146.931C108.445 145.188 99.7174 141.329 95.9503 134.649C94.4144 132.141 98.1691 135.002 94.6244 130.902C90.0761 126.857 87.8049 122.265 84.7516 117.347C81.1041 115.401 80.6792 109.674 80.3104 117.155C80.3393 112.434 75.9065 109.256 74.8245 110.577C74.8051 106.029 79.5685 108.309 76.234 104.944C75.5163 100.231 73.1531 95.3202 72.4428 89.999C71.3392 87.434 72.2874 81.9404 68.6762 87.747C67.3605 93.8837 68.2395 80.2057 70.2855 84.7162C72.9709 80.1137 69.3214 80.655 69.1719 81.2941C70.9212 77.4107 70.2791 71.9025 68.7155 74.0038C69.6476 69.888 70.188 58.8563 67.3204 60.8113C69.0587 56.5073 70.617 41.1172 63.0707 46.9849C60.0124 47.0279 54.7162 48.0951 52.2127 49.3402C60.0622 53.667 51.4232 50.9028 48.2279 50.2151C47.8116 54.2187 44.6467 52.4871 40.6928 52.5264C47.0081 53.3077 37.6175 58.9854 33.9946 56.7799C29.2895 59.0287 38.0553 64.6419 34.0891 66.3775C34.5765 68.9941 26.8808 65.4326 27.4852 71.4752C22.9175 69.5536 26.8563 78.6432 29.1415 75.569C36.9104 77.6716 34.6106 82.4653 34.8084 87.0189C33.5426 89.6723 28.5589 80.782 33.6985 81.1938C29.6438 74.607 29.2133 78.813 25.8439 81.8729C25.0601 82.0951 34.4383 86.2266 28.553 88.2696C33.7309 89.0685 33.8782 93.5997 34.9323 96.4669C38.0445 99.7084 37.4075 92.8876 41.1313 96.7832C38.7749 93.3127 28.6495 87.0048 36.8018 89.0279C36.7582 85.5349 35.3274 82.7183 37.825 82.7867C40.2984 78.3074 35.2346 93.8307 40.8097 88.1379C42.353 87.464 42.7353 83.653 45.5093 88.4978C49.5384 92.4614 46.9646 95.3336 41.2811 91.7043C42.2979 95.1537 48.8842 96.3865 47.6465 101.781C48.9586 106.525 50.7943 104.778 52.3945 104.503C53.6497 109.113 54.3625 105.724 54.422 103.53C60.1694 104.76 58.8232 108.158 60.6215 110.531C64.5819 112.319 54.9528 98.4141 61.7521 106.35C68.9057 112.809 64.4349 115.505 58.0153 114.47C62.0784 114.142 63.3887 119.963 68.471 119.759C73.1055 121.963 76.2433 130.432 68.2548 126.906C65.4841 124.408 55.6791 121.326 63.6875 126.078C71.0841 129.503 76.9587 131.553 84.0924 135.852C89.1977 139.497 91.4034 143.671 93.3385 144.497C89.0476 146.547 80.4076 142.861 86.8233 141.731C82.8216 141.002 78.3207 138.979 82.1537 143.965C85.413 146.686 93.7008 146.398 95.1865 146.706C93.9272 149.481 91.7658 149.701 95.2381 149.917C91.3644 151.981 96.4803 152.301 96.8393 153.48ZM88.9178 131.11C86.561 128.646 85.9516 124.029 88.4993 128.046C89.8058 128.571 92.6845 135.59 88.9178 131.11ZM114.715 147.497C116.185 147.402 114.758 148.614 114.715 147.497ZM85.1965 125.067C86.049 127.941 85.1061 121.341 85.1965 125.067ZM82.6325 121.617C86.3697 123.239 79.6681 115.889 82.6325 121.617ZM51.5618 100.172C53.3034 99.7078 52.4187 103.151 51.5618 100.172ZM76.2901 113.576C77.5471 116.946 77.3597 109.559 76.2901 113.576ZM58.8204 101.428C61.3964 103.507 57.5888 99.212 58.8204 101.428ZM73.8131 106.235C71.0046 99.9423 75.8015 102.798 74.4345 107.266L73.8131 106.235ZM47.958 88.9918C46.7023 86.9274 44.6253 80.8704 45.294 79.0213C45.8989 82.0327 51.6979 91.9809 48.1385 83.1423C44.2052 75.7332 52.8404 85.5472 53.7286 87.3952C54.1422 89.2336 51.3018 86.893 53.2264 91.2035C49.7166 86.2958 51.1544 93.9144 47.958 88.9918ZM39.9673 83.4856C41.7965 86.777 40.2962 78.6858 39.9673 83.4856ZM43.5615 84.7229C46.4698 89.7734 45.2767 81.1001 43.5615 84.7229ZM34.9154 78.0345C31.9404 75.0782 29.7876 72.3531 35.0546 76.1997C37.0841 76.2789 30.5456 70.0027 35.5433 74.2067C40.7986 75.1649 38.1384 82.8234 34.9154 78.0345ZM39.4571 77.9157C41.1848 76.2037 40.3743 79.601 39.4571 77.9157ZM42.2517 78.8116C45.4305 80.8698 39.6325 73.9022 42.2517 78.8116ZM36.6962 73.5025C28.0478 65.806 47.5635 77.527 38.1091 74.9294L36.6962 73.5025ZM61.4753 87.8997C57.7328 85.6557 60.4835 72.1022 61.7598 81.3719C65.3981 80.1949 61.5589 86.1591 64.2726 86.1039C63.8449 89.867 62.6309 91.2199 61.4753 87.8997ZM70.6405 93.3165C71.413 96.1092 71.0076 89.2319 70.6405 93.3165ZM69.0485 91.7436C69.4606 89.9986 69.0911 93.7985 69.0485 91.7436ZM38.3928 70.9734C32.8367 63.3078 54.5401 78.7276 41.9513 72.9177C40.6359 72.5737 39.0531 72.4509 38.3928 70.9734ZM56.0419 80.3309C57.2162 81.4009 55.5161 73.8763 56.0419 80.3309ZM69.4416 88.9268C70.4786 85.2501 69.5189 91.359 69.4416 88.9268ZM39.2439 68.0478C42.5461 67.3416 52.9286 73.8472 43.3941 69.9062C42.3347 68.7334 40.0763 69.2662 39.2439 68.0478ZM67.6006 82.181C67.9536 75.5809 69.572 78.2386 67.6128 83.1257L67.6006 82.181ZM41.702 65.7512C43.0474 63.7776 38.1303 56.8282 42.4108 63.2584C44.2603 64.728 47.7659 65.7204 44.6708 66.3386C49.5385 70.6328 43.4835 67.5023 41.702 65.7512ZM66.1981 80.1194C67.1276 72.601 67.0178 84.5242 66.1981 80.1194ZM38.892 58.807C39.9197 58.3678 39.4347 60.1764 38.892 58.807ZM45.2816 62.6101C48.3151 66.4584 46.926 59.1596 45.2816 62.6101ZM63.3051 72.6364C63.6452 74.564 63.2877 71.3112 63.3051 72.6364ZM62.2611 70.325C64.588 73.5926 59.7595 64.1534 62.2611 70.325ZM60.7251 66.2786C62.1523 69.4825 60.3052 63.7284 60.7251 66.2786ZM63.2249 62.2151C61.5082 59.19 65.3926 48.8841 65.8261 55.2757C64.0142 60.256 65.3034 63.042 66.5674 56.3621C68.9015 51.1049 66.0632 66.7361 63.2249 62.2151ZM65.7937 46.8885C66.5421 45.9696 65.9598 47.9956 65.7937 46.8885ZM61.5037 131.423C61.6315 131.988 60.4862 130.535 61.5037 131.423ZM70.3415 135.893C75.2575 137.155 75.2323 135.128 70.7893 134.527C68.3995 132.303 60.8588 129.945 67.6081 134.251C68.0551 135.383 69.4675 135.357 70.3415 135.893ZM52.8873 124.3C55.5955 126.32 63.0885 130.024 56.7455 125.069C58.884 122.584 52.6521 121.262 54.7194 119.6C49.4612 116.382 50.5714 116.668 54.2553 116.77C47.9359 113.945 55.1674 114.156 54.8269 112.709C52.3902 112.228 42.7239 108.412 48.4105 113.022C42.6297 110.075 47.0329 114.12 45.2857 113.693C39.3743 112.081 50.5501 118.195 44.3468 116.677C47.7381 119.365 53.4751 123.561 45.7806 119.521C44.7668 120.981 51.2869 123.193 52.8873 124.3ZM62.1305 129.611C73.3692 133.232 56.6204 125.186 62.1305 129.611ZM109.447 158.275C109.592 156.045 107.911 160.177 109.447 158.275ZM114.31 160.322C116.903 157.809 114.416 164.324 118.607 159.707C118.652 156.401 118.478 154.449 113.791 158.464C112.499 159.18 111.922 162.227 114.31 160.322ZM37.1116 111.839C36.3152 108.709 31.5296 108.725 37.1116 111.839ZM42.3046 115.242C40.3762 112.045 35.4241 112.348 42.3046 115.242ZM71.848 133.059C74.7324 135.621 85.0956 134.939 75.3513 133.375C73.9081 131.241 66.1871 131.754 71.848 133.059ZM112.46 158.141C116.9 154.416 108.159 159.803 112.46 158.141ZM121.693 164.486C121.721 163.29 119.78 165.009 121.693 164.486ZM121.707 162.812C116.944 163.12 126.623 157.603 121.707 162.812ZM24.339 101.147C20.1491 95.1683 21.7344 92.4811 17.6939 87.5997C16.929 83.867 10.7622 75.3965 14.5043 84.3703C17.9318 89.6186 18.9503 97.7446 24.339 101.147ZM120.165 161.156C129.21 155.311 116.453 158.61 120.165 161.156ZM127.069 163.861C131.599 159.972 124.205 163.048 127.069 163.861ZM35.5723 105.232C36.8685 103.303 32.2247 104.985 35.5723 105.232ZM125.628 162.014C130.013 159.187 124.618 159.621 124.833 162.274L125.628 162.014ZM66.114 124.502C65.9633 122.593 63.7983 124.665 66.114 124.502ZM69.792 126.619C68.6231 124.256 67.9948 126.99 69.792 126.619ZM132.664 163.925C138.283 159.872 129.259 163.149 131.485 164.693L132.664 163.925ZM130.513 162.885C135.09 159.05 125.681 164.585 130.513 162.885ZM141.505 170.205C144.578 168.147 137.772 169.539 141.505 170.205ZM38.3904 103.841C42.5094 104.764 54.8508 113.985 47.5699 104.479C43.8409 103.375 46.0773 94.2596 42.2737 95.8729C44.8267 100.138 44.3742 101.953 39.0141 99.2643C32.2773 95.9757 35.2282 100.894 36.5448 102.249C34.7506 102.657 38.918 103.807 38.3904 103.841ZM19.6246 89.0207C20.362 85.9708 12.8348 72.2419 16.0701 82.1415C17.238 84.2152 17.1192 88.1454 19.6246 89.0207ZM54.068 110.256C53.9672 110.005 51.947 108.482 54.068 110.256ZM59.291 111.471C59.2883 108.24 53.5178 110.159 59.291 111.471ZM104.552 140.005C101.14 139.953 103.689 137.797 104.552 140.005ZM106.726 141.592C106.405 140.357 105.472 141.831 106.726 141.592ZM124.666 152.892C126.392 151.618 122.513 152.729 124.666 152.892ZM28.9983 91.4137C33.9335 89.503 23.7105 90.0512 28.9983 91.4137ZM100.568 136.503C100.513 133.308 97.4218 137.296 100.568 136.503ZM27.0483 86.8699C30.2185 85.799 24.1157 86.1646 27.0483 86.8699ZM36.2499 91.3271C36.1924 90.277 35.2765 91.7246 36.2499 91.3271ZM148.481 160.149C152.558 159.322 161.847 162.224 163.349 159.068C158.398 158.948 146.221 155.575 145.645 159.873L146.729 160.044L148.481 160.149ZM39.1744 92.0641C39.2452 88.8266 36.6497 91.9432 39.1744 92.0641ZM14.9812 75.2818C13.8825 69.1134 10.8024 74.3483 14.9812 75.2818ZM20.7504 76.732C20.8213 74.7513 15.4698 74.9497 20.7504 76.732ZM24.0473 78.3512C23.3013 79.3264 23.0943 77.5792 24.0473 78.3512ZM44.792 91.6589C45.7686 90.7618 42.4799 90.9944 44.792 91.6589ZM21.8514 74.6993C21.2938 70.0403 15.1694 74.0012 21.8514 74.6993ZM10.0236 67.0248C9.85542 64.8746 8.87101 67.8359 10.0236 67.0248ZM11.783 65.6961C11.4959 63.1465 10.2725 66.0205 11.783 65.6961ZM21.5038 71.4986C25.6143 69.8839 14.0165 68.1587 20.6639 71.1935L21.5038 71.4986ZM151.601 151.858C154.232 149.446 148.258 151.112 151.601 151.858ZM167.318 160.005C168.372 156.886 164.664 160.415 167.318 160.005ZM22.4972 66.4036C22.9302 63.3868 19.2384 67.0026 22.4972 66.4036ZM8.66688 57.1374C7.92392 52.8783 8.02555 45.4023 15.132 47.9288C5.64606 49.8121 21.6974 59.7189 19.6704 51.8972C23.659 52.0924 27.473 49.5399 25.3799 53.4136C33.2386 52.5456 38.687 45.7309 46.278 46.6859C52.1911 45.9034 58.6562 45.3099 65.0283 42.9297C70.2673 42.5523 75.3106 36.9117 72.439 33.5683C65.2944 32.9638 57.8156 33.8577 49.9189 35.4273C41.1683 37.2464 33.2198 40.7026 24.3907 42.1862C15.7848 43.3422 26.1217 45.3714 23.6567 45.8234C19.166 47.3816 29.0121 48.4323 23.0745 50.0748C19.4075 49.3776 15.5906 48.1177 17.157 44.2533C8.9133 45.323 1.66946 48.7445 8.18247 57.1335L8.66688 57.1374ZM28.5312 47.0206C30.464 39.9001 38.8864 52.8798 31.6992 47.9664C30.8408 47.3239 29.4289 46.7998 28.5312 47.0206ZM28.9072 43.5684C31.6969 41.4901 30.3902 44.7335 28.9072 43.5684ZM32.4494 43.6246C32.7013 40.3481 40.5582 45.3591 33.7449 44.8041L32.4494 43.6246ZM37.2949 41.6764C39.0643 39.6089 37.8035 43.5155 37.2949 41.6764ZM38.5344 40.8463C41.4808 37.3061 55.22 38.5869 45.1634 40.5012C42.4678 38.4718 40.4016 41.6977 38.5344 40.8463ZM56.4644 38.0825C65.3722 41.5189 56.0162 28.4122 56.4644 38.0825ZM61.552 38.0546C63.412 33.1807 68.7701 36.0989 62.4127 37.0752C62.5508 37.5939 62.2263 39.5914 61.552 38.0546ZM20.491 63.9019C26.0486 60.4987 14.5911 60.9493 20.491 63.9019ZM24.6003 65.0437C26.5488 62.9719 20.3664 64.2034 24.6003 65.0437ZM12.4926 56.4508C15.6682 54.0114 8.73475 55.5233 12.4926 56.4508ZM176.595 159.113C176.687 156.283 174.168 160.389 176.595 159.113ZM159.92 147.734C160.394 144.475 157.777 148.018 159.92 147.734ZM181.18 160.211C185.62 160.226 194.633 158.832 184.973 158.836C183.457 159.073 176.139 159.022 181.18 160.211ZM28.2148 63.0465C31.8081 62.7997 33.8367 59.0829 27.5199 59.2965C17.7299 58.283 36.1574 62.6487 26.264 61.4004C24.9346 62.2807 28.1376 63.2901 28.2148 63.0465ZM31.3794 64.6483C31.0042 62.3412 30.2683 65.8739 31.3794 64.6483ZM35.1333 54.6384C36.6926 52.7043 32.9756 54.1213 35.1333 54.6384ZM23.1832 34.6631C29.5961 32.4815 38.3656 30.03 41.3935 35.7373C38.3119 32.0284 40.1499 28.3771 43.0605 33.7999C47.1761 39.2866 49.2364 31.3044 46.5596 29.4641C49.61 33.2543 53.0796 35.0454 48.602 29.7036C53.4677 23.8507 38.8593 30.4701 35.5389 30.4034C33.9413 31.1205 19.0453 34.2023 23.1832 34.6631ZM26.9415 27.4653C30.5988 24.7049 39.5905 29.1073 33.8206 24.7219C33.2565 24.2236 21.1845 28.0474 26.9415 27.4653ZM40.275 28.0158C44.5554 28.125 38.4287 22.2655 43.5293 24.9206C42.6916 22.184 37.5907 21.6716 35.097 20.5783C33.6865 23.0803 37.968 28.0494 40.275 28.0158ZM29.2795 15.9123C30.7603 13.9049 26.6843 16.93 29.2795 15.9123ZM34.7291 17.2166C41.6269 16.3017 32.9708 14.2461 33.3391 17.1431L34.7291 17.2166ZM24.5536 9.25457C19.6967 2.91436 33.6876 10.3203 28.753 3.68192C24.5997 0.374676 20.6087 7.4037 24.5536 9.25457ZM86.8837 42.8274C89.1113 38.8784 77.6867 37.5044 85.3828 41.4278C86.0914 41.6646 85.931 43.1005 86.8837 42.8274Z"/>
</mask>
<path d="M59.1241 153.847C51.8419 148.119 44.0738 142.628 38.7655 134.895C27.596 121.258 18.9961 105.47 13.1168 88.8783C9.56315 78.0897 8.3461 66.523 3.765 56.1512C-1.02729 48.6182 4.58622 40.3833 12.8377 37.9888C16.5115 37.2837 22.971 33.8186 15.1737 36.2953C8.18308 41.4241 7.50654 31.6397 14.6748 31.0201C19.5669 30.3698 21.3677 26.3651 19.6948 22.7598C14.4435 19.3354 32.4286 15.5718 23.3792 10.462C13.9522 0.291382 36.5655 -1.6665 30.9865 9.88426C29.651 18.7663 46.7877 8.25635 42.8116 18.5132C46.8529 23.4389 57.9451 19.6343 57.67 26.5446C63.5571 26.9493 65.5775 31.9027 71.104 32.2829C76.8315 34.8695 87.2148 36.9077 89.1638 43.3621C83.4813 47.8609 70.3229 34.0694 69.6907 46.5225C71.4073 64.9186 70.97 83.8689 77.7006 101.387C80.8841 111.995 88.6018 120.345 95.5717 128.607C102.24 136.698 111.274 142.394 120.481 147.19C128.557 150.999 137.264 153.526 146.066 155.111C149.636 152.38 155.939 142.228 161.509 146.509C161.773 151.319 150.455 156.564 160.976 156.032C167.154 154.169 171.44 160.81 176.527 154.819C181.214 160.372 196.009 151.272 192.674 162.621C188.164 165.53 181.587 163.772 177.07 167.775C169.623 164.055 163.693 171.103 155.448 170.212C146.292 171.852 136.977 172.514 127.693 172.528C112.464 171.325 96.9119 170.818 82.4238 165.515C74.2621 163.144 66.2973 158.496 59.1241 153.847ZM71.9862 159.42C79.9558 162.866 87.7486 166.499 96.4827 167.594C110.34 169.522 124.649 172.486 138.556 169.782C132.262 166.94 125.755 170.889 119.485 167.75C111.964 169.368 103.894 167.338 96.249 166.338C87.5551 162.465 78.1728 159.802 70.0313 154.776C59.8582 151.06 75.2927 159.541 78.04 160.228C84.3996 163.837 71.0466 158.377 69.1641 156.877C63.8377 153.889 63.1589 154.513 68.6367 157.548C69.74 158.193 70.8303 158.87 71.9862 159.42ZM56.8215 148.703C64.5442 151.563 56.7874 143.272 53.2485 143.754C51.6806 141.034 47.2582 139.315 50.3778 137.854C44.7663 139.802 44.4995 130.446 41.8618 131.783C35.9253 129.908 39.5513 123.268 32.4799 119.19C31.8344 114.893 25.4541 111.166 23.4191 104.685C22.5203 101.366 16.2107 91.8367 20.0867 100.705C23.3869 109.243 29.1933 116.554 34.0254 123.857C37.7775 130.81 42.2079 138.077 49.0411 142.415C51.3446 144.625 53.5686 148.01 56.8215 148.703ZM34.5738 124.277C35.9862 126.801 34.8433 123.11 34.5738 124.277ZM66.0702 152.132C67.7803 151.366 63.611 151.167 66.0702 152.132ZM70.2625 153.661C69.8283 151.55 68.3487 154.842 70.2625 153.661ZM75.5099 155.85C78.0082 153.471 71.6599 154.35 75.5099 155.85ZM84.5038 160.863C86.0219 158.619 79.6451 160.016 84.5038 160.863ZM67.2331 148.824C71.1134 146.313 62.2213 148.789 67.2331 148.824ZM71.1697 150.786C71.0597 149.459 69.7668 151.381 71.1697 150.786ZM90.8445 163.066C94.0073 165.062 109.314 167.441 99.7292 163.885C98.1255 164.223 81.9566 159.312 90.8445 163.066ZM59.6102 138.74C59.3027 137.409 54.7008 137.271 59.6102 138.74ZM68.7695 144.078C71.1532 142.416 63.8219 142.796 68.7695 144.078ZM76.4737 148.802C79.8944 147.513 70.9246 147.507 76.4737 148.802ZM55.8831 134.681C59.5945 137.527 70.8508 135.046 61.5669 132.982C57.3414 130.73 47.818 129.188 54.3093 134.34L55.8831 134.681ZM81.6918 150.433C83.2378 147.799 75.2089 148.929 81.6918 150.433ZM73.8494 144.201C82.9246 146.768 66.2179 138.461 71.6103 143.256L72.8054 143.797L73.8494 144.201ZM89.5729 153.288C81.8099 152.103 98.1676 153.37 89.5729 153.288ZM52.5762 129.709C52.2405 128.108 50.4552 129.843 52.5762 129.709ZM104.112 161.444C104.341 158.552 101.307 163.595 104.112 161.444ZM67.2434 138.691C66.7235 137.168 64.5579 138.628 67.2434 138.691ZM53.3913 128.704C58.3255 128.408 46.636 126.53 53.3913 128.704ZM36.9816 118.097C36.3674 115.732 31.6124 113.845 36.9816 118.097ZM80.0609 145.436C79.6358 145.662 79.1572 144.406 80.0609 145.436ZM106.875 161.891C106.789 160.316 105.415 162.487 106.875 161.891ZM77.6879 142.986C78.1705 140.957 73.4805 142.372 77.6879 142.986ZM57.7118 130.326C61.3826 129.933 51.8314 127.844 57.7118 130.326ZM91.5032 151.323C97.2236 149.057 85.9277 150.217 91.5032 151.323ZM73.9263 139.392C80.5191 140.242 66.0819 134.907 72.4798 138.914L73.9263 139.392ZM96.8393 153.48C102.994 149.801 100.965 162.097 107.282 154.519C113.513 149.97 101.901 160.144 109.58 155.33C115.134 151.616 123.337 157.091 128.519 158.877C132.245 158.694 135.868 162.1 139.688 160.028C147.043 158.047 125.307 157.09 131.005 153.576C124.276 155.534 119.304 151.241 115.993 146.931C108.445 145.188 99.7174 141.329 95.9503 134.649C94.4144 132.141 98.1691 135.002 94.6244 130.902C90.0761 126.857 87.8049 122.265 84.7516 117.347C81.1041 115.401 80.6792 109.674 80.3104 117.155C80.3393 112.434 75.9065 109.256 74.8245 110.577C74.8051 106.029 79.5685 108.309 76.234 104.944C75.5163 100.231 73.1531 95.3202 72.4428 89.999C71.3392 87.434 72.2874 81.9404 68.6762 87.747C67.3605 93.8837 68.2395 80.2057 70.2855 84.7162C72.9709 80.1137 69.3214 80.655 69.1719 81.2941C70.9212 77.4107 70.2791 71.9025 68.7155 74.0038C69.6476 69.888 70.188 58.8563 67.3204 60.8113C69.0587 56.5073 70.617 41.1172 63.0707 46.9849C60.0124 47.0279 54.7162 48.0951 52.2127 49.3402C60.0622 53.667 51.4232 50.9028 48.2279 50.2151C47.8116 54.2187 44.6467 52.4871 40.6928 52.5264C47.0081 53.3077 37.6175 58.9854 33.9946 56.7799C29.2895 59.0287 38.0553 64.6419 34.0891 66.3775C34.5765 68.9941 26.8808 65.4326 27.4852 71.4752C22.9175 69.5536 26.8563 78.6432 29.1415 75.569C36.9104 77.6716 34.6106 82.4653 34.8084 87.0189C33.5426 89.6723 28.5589 80.782 33.6985 81.1938C29.6438 74.607 29.2133 78.813 25.8439 81.8729C25.0601 82.0951 34.4383 86.2266 28.553 88.2696C33.7309 89.0685 33.8782 93.5997 34.9323 96.4669C38.0445 99.7084 37.4075 92.8876 41.1313 96.7832C38.7749 93.3127 28.6495 87.0048 36.8018 89.0279C36.7582 85.5349 35.3274 82.7183 37.825 82.7867C40.2984 78.3074 35.2346 93.8307 40.8097 88.1379C42.353 87.464 42.7353 83.653 45.5093 88.4978C49.5384 92.4614 46.9646 95.3336 41.2811 91.7043C42.2979 95.1537 48.8842 96.3865 47.6465 101.781C48.9586 106.525 50.7943 104.778 52.3945 104.503C53.6497 109.113 54.3625 105.724 54.422 103.53C60.1694 104.76 58.8232 108.158 60.6215 110.531C64.5819 112.319 54.9528 98.4141 61.7521 106.35C68.9057 112.809 64.4349 115.505 58.0153 114.47C62.0784 114.142 63.3887 119.963 68.471 119.759C73.1055 121.963 76.2433 130.432 68.2548 126.906C65.4841 124.408 55.6791 121.326 63.6875 126.078C71.0841 129.503 76.9587 131.553 84.0924 135.852C89.1977 139.497 91.4034 143.671 93.3385 144.497C89.0476 146.547 80.4076 142.861 86.8233 141.731C82.8216 141.002 78.3207 138.979 82.1537 143.965C85.413 146.686 93.7008 146.398 95.1865 146.706C93.9272 149.481 91.7658 149.701 95.2381 149.917C91.3644 151.981 96.4803 152.301 96.8393 153.48ZM88.9178 131.11C86.561 128.646 85.9516 124.029 88.4993 128.046C89.8058 128.571 92.6845 135.59 88.9178 131.11ZM114.715 147.497C116.185 147.402 114.758 148.614 114.715 147.497ZM85.1965 125.067C86.049 127.941 85.1061 121.341 85.1965 125.067ZM82.6325 121.617C86.3697 123.239 79.6681 115.889 82.6325 121.617ZM51.5618 100.172C53.3034 99.7078 52.4187 103.151 51.5618 100.172ZM76.2901 113.576C77.5471 116.946 77.3597 109.559 76.2901 113.576ZM58.8204 101.428C61.3964 103.507 57.5888 99.212 58.8204 101.428ZM73.8131 106.235C71.0046 99.9423 75.8015 102.798 74.4345 107.266L73.8131 106.235ZM47.958 88.9918C46.7023 86.9274 44.6253 80.8704 45.294 79.0213C45.8989 82.0327 51.6979 91.9809 48.1385 83.1423C44.2052 75.7332 52.8404 85.5472 53.7286 87.3952C54.1422 89.2336 51.3018 86.893 53.2264 91.2035C49.7166 86.2958 51.1544 93.9144 47.958 88.9918ZM39.9673 83.4856C41.7965 86.777 40.2962 78.6858 39.9673 83.4856ZM43.5615 84.7229C46.4698 89.7734 45.2767 81.1001 43.5615 84.7229ZM34.9154 78.0345C31.9404 75.0782 29.7876 72.3531 35.0546 76.1997C37.0841 76.2789 30.5456 70.0027 35.5433 74.2067C40.7986 75.1649 38.1384 82.8234 34.9154 78.0345ZM39.4571 77.9157C41.1848 76.2037 40.3743 79.601 39.4571 77.9157ZM42.2517 78.8116C45.4305 80.8698 39.6325 73.9022 42.2517 78.8116ZM36.6962 73.5025C28.0478 65.806 47.5635 77.527 38.1091 74.9294L36.6962 73.5025ZM61.4753 87.8997C57.7328 85.6557 60.4835 72.1022 61.7598 81.3719C65.3981 80.1949 61.5589 86.1591 64.2726 86.1039C63.8449 89.867 62.6309 91.2199 61.4753 87.8997ZM70.6405 93.3165C71.413 96.1092 71.0076 89.2319 70.6405 93.3165ZM69.0485 91.7436C69.4606 89.9986 69.0911 93.7985 69.0485 91.7436ZM38.3928 70.9734C32.8367 63.3078 54.5401 78.7276 41.9513 72.9177C40.6359 72.5737 39.0531 72.4509 38.3928 70.9734ZM56.0419 80.3309C57.2162 81.4009 55.5161 73.8763 56.0419 80.3309ZM69.4416 88.9268C70.4786 85.2501 69.5189 91.359 69.4416 88.9268ZM39.2439 68.0478C42.5461 67.3416 52.9286 73.8472 43.3941 69.9062C42.3347 68.7334 40.0763 69.2662 39.2439 68.0478ZM67.6006 82.181C67.9536 75.5809 69.572 78.2386 67.6128 83.1257L67.6006 82.181ZM41.702 65.7512C43.0474 63.7776 38.1303 56.8282 42.4108 63.2584C44.2603 64.728 47.7659 65.7204 44.6708 66.3386C49.5385 70.6328 43.4835 67.5023 41.702 65.7512ZM66.1981 80.1194C67.1276 72.601 67.0178 84.5242 66.1981 80.1194ZM38.892 58.807C39.9197 58.3678 39.4347 60.1764 38.892 58.807ZM45.2816 62.6101C48.3151 66.4584 46.926 59.1596 45.2816 62.6101ZM63.3051 72.6364C63.6452 74.564 63.2877 71.3112 63.3051 72.6364ZM62.2611 70.325C64.588 73.5926 59.7595 64.1534 62.2611 70.325ZM60.7251 66.2786C62.1523 69.4825 60.3052 63.7284 60.7251 66.2786ZM63.2249 62.2151C61.5082 59.19 65.3926 48.8841 65.8261 55.2757C64.0142 60.256 65.3034 63.042 66.5674 56.3621C68.9015 51.1049 66.0632 66.7361 63.2249 62.2151ZM65.7937 46.8885C66.5421 45.9696 65.9598 47.9956 65.7937 46.8885ZM61.5037 131.423C61.6315 131.988 60.4862 130.535 61.5037 131.423ZM70.3415 135.893C75.2575 137.155 75.2323 135.128 70.7893 134.527C68.3995 132.303 60.8588 129.945 67.6081 134.251C68.0551 135.383 69.4675 135.357 70.3415 135.893ZM52.8873 124.3C55.5955 126.32 63.0885 130.024 56.7455 125.069C58.884 122.584 52.6521 121.262 54.7194 119.6C49.4612 116.382 50.5714 116.668 54.2553 116.77C47.9359 113.945 55.1674 114.156 54.8269 112.709C52.3902 112.228 42.7239 108.412 48.4105 113.022C42.6297 110.075 47.0329 114.12 45.2857 113.693C39.3743 112.081 50.5501 118.195 44.3468 116.677C47.7381 119.365 53.4751 123.561 45.7806 119.521C44.7668 120.981 51.2869 123.193 52.8873 124.3ZM62.1305 129.611C73.3692 133.232 56.6204 125.186 62.1305 129.611ZM109.447 158.275C109.592 156.045 107.911 160.177 109.447 158.275ZM114.31 160.322C116.903 157.809 114.416 164.324 118.607 159.707C118.652 156.401 118.478 154.449 113.791 158.464C112.499 159.18 111.922 162.227 114.31 160.322ZM37.1116 111.839C36.3152 108.709 31.5296 108.725 37.1116 111.839ZM42.3046 115.242C40.3762 112.045 35.4241 112.348 42.3046 115.242ZM71.848 133.059C74.7324 135.621 85.0956 134.939 75.3513 133.375C73.9081 131.241 66.1871 131.754 71.848 133.059ZM112.46 158.141C116.9 154.416 108.159 159.803 112.46 158.141ZM121.693 164.486C121.721 163.29 119.78 165.009 121.693 164.486ZM121.707 162.812C116.944 163.12 126.623 157.603 121.707 162.812ZM24.339 101.147C20.1491 95.1683 21.7344 92.4811 17.6939 87.5997C16.929 83.867 10.7622 75.3965 14.5043 84.3703C17.9318 89.6186 18.9503 97.7446 24.339 101.147ZM120.165 161.156C129.21 155.311 116.453 158.61 120.165 161.156ZM127.069 163.861C131.599 159.972 124.205 163.048 127.069 163.861ZM35.5723 105.232C36.8685 103.303 32.2247 104.985 35.5723 105.232ZM125.628 162.014C130.013 159.187 124.618 159.621 124.833 162.274L125.628 162.014ZM66.114 124.502C65.9633 122.593 63.7983 124.665 66.114 124.502ZM69.792 126.619C68.6231 124.256 67.9948 126.99 69.792 126.619ZM132.664 163.925C138.283 159.872 129.259 163.149 131.485 164.693L132.664 163.925ZM130.513 162.885C135.09 159.05 125.681 164.585 130.513 162.885ZM141.505 170.205C144.578 168.147 137.772 169.539 141.505 170.205ZM38.3904 103.841C42.5094 104.764 54.8508 113.985 47.5699 104.479C43.8409 103.375 46.0773 94.2596 42.2737 95.8729C44.8267 100.138 44.3742 101.953 39.0141 99.2643C32.2773 95.9757 35.2282 100.894 36.5448 102.249C34.7506 102.657 38.918 103.807 38.3904 103.841ZM19.6246 89.0207C20.362 85.9708 12.8348 72.2419 16.0701 82.1415C17.238 84.2152 17.1192 88.1454 19.6246 89.0207ZM54.068 110.256C53.9672 110.005 51.947 108.482 54.068 110.256ZM59.291 111.471C59.2883 108.24 53.5178 110.159 59.291 111.471ZM104.552 140.005C101.14 139.953 103.689 137.797 104.552 140.005ZM106.726 141.592C106.405 140.357 105.472 141.831 106.726 141.592ZM124.666 152.892C126.392 151.618 122.513 152.729 124.666 152.892ZM28.9983 91.4137C33.9335 89.503 23.7105 90.0512 28.9983 91.4137ZM100.568 136.503C100.513 133.308 97.4218 137.296 100.568 136.503ZM27.0483 86.8699C30.2185 85.799 24.1157 86.1646 27.0483 86.8699ZM36.2499 91.3271C36.1924 90.277 35.2765 91.7246 36.2499 91.3271ZM148.481 160.149C152.558 159.322 161.847 162.224 163.349 159.068C158.398 158.948 146.221 155.575 145.645 159.873L146.729 160.044L148.481 160.149ZM39.1744 92.0641C39.2452 88.8266 36.6497 91.9432 39.1744 92.0641ZM14.9812 75.2818C13.8825 69.1134 10.8024 74.3483 14.9812 75.2818ZM20.7504 76.732C20.8213 74.7513 15.4698 74.9497 20.7504 76.732ZM24.0473 78.3512C23.3013 79.3264 23.0943 77.5792 24.0473 78.3512ZM44.792 91.6589C45.7686 90.7618 42.4799 90.9944 44.792 91.6589ZM21.8514 74.6993C21.2938 70.0403 15.1694 74.0012 21.8514 74.6993ZM10.0236 67.0248C9.85542 64.8746 8.87101 67.8359 10.0236 67.0248ZM11.783 65.6961C11.4959 63.1465 10.2725 66.0205 11.783 65.6961ZM21.5038 71.4986C25.6143 69.8839 14.0165 68.1587 20.6639 71.1935L21.5038 71.4986ZM151.601 151.858C154.232 149.446 148.258 151.112 151.601 151.858ZM167.318 160.005C168.372 156.886 164.664 160.415 167.318 160.005ZM22.4972 66.4036C22.9302 63.3868 19.2384 67.0026 22.4972 66.4036ZM8.66688 57.1374C7.92392 52.8783 8.02555 45.4023 15.132 47.9288C5.64606 49.8121 21.6974 59.7189 19.6704 51.8972C23.659 52.0924 27.473 49.5399 25.3799 53.4136C33.2386 52.5456 38.687 45.7309 46.278 46.6859C52.1911 45.9034 58.6562 45.3099 65.0283 42.9297C70.2673 42.5523 75.3106 36.9117 72.439 33.5683C65.2944 32.9638 57.8156 33.8577 49.9189 35.4273C41.1683 37.2464 33.2198 40.7026 24.3907 42.1862C15.7848 43.3422 26.1217 45.3714 23.6567 45.8234C19.166 47.3816 29.0121 48.4323 23.0745 50.0748C19.4075 49.3776 15.5906 48.1177 17.157 44.2533C8.9133 45.323 1.66946 48.7445 8.18247 57.1335L8.66688 57.1374ZM28.5312 47.0206C30.464 39.9001 38.8864 52.8798 31.6992 47.9664C30.8408 47.3239 29.4289 46.7998 28.5312 47.0206ZM28.9072 43.5684C31.6969 41.4901 30.3902 44.7335 28.9072 43.5684ZM32.4494 43.6246C32.7013 40.3481 40.5582 45.3591 33.7449 44.8041L32.4494 43.6246ZM37.2949 41.6764C39.0643 39.6089 37.8035 43.5155 37.2949 41.6764ZM38.5344 40.8463C41.4808 37.3061 55.22 38.5869 45.1634 40.5012C42.4678 38.4718 40.4016 41.6977 38.5344 40.8463ZM56.4644 38.0825C65.3722 41.5189 56.0162 28.4122 56.4644 38.0825ZM61.552 38.0546C63.412 33.1807 68.7701 36.0989 62.4127 37.0752C62.5508 37.5939 62.2263 39.5914 61.552 38.0546ZM20.491 63.9019C26.0486 60.4987 14.5911 60.9493 20.491 63.9019ZM24.6003 65.0437C26.5488 62.9719 20.3664 64.2034 24.6003 65.0437ZM12.4926 56.4508C15.6682 54.0114 8.73475 55.5233 12.4926 56.4508ZM176.595 159.113C176.687 156.283 174.168 160.389 176.595 159.113ZM159.92 147.734C160.394 144.475 157.777 148.018 159.92 147.734ZM181.18 160.211C185.62 160.226 194.633 158.832 184.973 158.836C183.457 159.073 176.139 159.022 181.18 160.211ZM28.2148 63.0465C31.8081 62.7997 33.8367 59.0829 27.5199 59.2965C17.7299 58.283 36.1574 62.6487 26.264 61.4004C24.9346 62.2807 28.1376 63.2901 28.2148 63.0465ZM31.3794 64.6483C31.0042 62.3412 30.2683 65.8739 31.3794 64.6483ZM35.1333 54.6384C36.6926 52.7043 32.9756 54.1213 35.1333 54.6384ZM23.1832 34.6631C29.5961 32.4815 38.3656 30.03 41.3935 35.7373C38.3119 32.0284 40.1499 28.3771 43.0605 33.7999C47.1761 39.2866 49.2364 31.3044 46.5596 29.4641C49.61 33.2543 53.0796 35.0454 48.602 29.7036C53.4677 23.8507 38.8593 30.4701 35.5389 30.4034C33.9413 31.1205 19.0453 34.2023 23.1832 34.6631ZM26.9415 27.4653C30.5988 24.7049 39.5905 29.1073 33.8206 24.7219C33.2565 24.2236 21.1845 28.0474 26.9415 27.4653ZM40.275 28.0158C44.5554 28.125 38.4287 22.2655 43.5293 24.9206C42.6916 22.184 37.5907 21.6716 35.097 20.5783C33.6865 23.0803 37.968 28.0494 40.275 28.0158ZM29.2795 15.9123C30.7603 13.9049 26.6843 16.93 29.2795 15.9123ZM34.7291 17.2166C41.6269 16.3017 32.9708 14.2461 33.3391 17.1431L34.7291 17.2166ZM24.5536 9.25457C19.6967 2.91436 33.6876 10.3203 28.753 3.68192C24.5997 0.374676 20.6087 7.4037 24.5536 9.25457ZM86.8837 42.8274C89.1113 38.8784 77.6867 37.5044 85.3828 41.4278C86.0914 41.6646 85.931 43.1005 86.8837 42.8274Z" fill="black"/>
<path d="M59.1241 153.847C51.8419 148.119 44.0738 142.628 38.7655 134.895C27.596 121.258 18.9961 105.47 13.1168 88.8783C9.56315 78.0897 8.3461 66.523 3.765 56.1512C-1.02729 48.6182 4.58622 40.3833 12.8377 37.9888C16.5115 37.2837 22.971 33.8186 15.1737 36.2953C8.18308 41.4241 7.50654 31.6397 14.6748 31.0201C19.5669 30.3698 21.3677 26.3651 19.6948 22.7598C14.4435 19.3354 32.4286 15.5718 23.3792 10.462C13.9522 0.291382 36.5655 -1.6665 30.9865 9.88426C29.651 18.7663 46.7877 8.25635 42.8116 18.5132C46.8529 23.4389 57.9451 19.6343 57.67 26.5446C63.5571 26.9493 65.5775 31.9027 71.104 32.2829C76.8315 34.8695 87.2148 36.9077 89.1638 43.3621C83.4813 47.8609 70.3229 34.0694 69.6907 46.5225C71.4073 64.9186 70.97 83.8689 77.7006 101.387C80.8841 111.995 88.6018 120.345 95.5717 128.607C102.24 136.698 111.274 142.394 120.481 147.19C128.557 150.999 137.264 153.526 146.066 155.111C149.636 152.38 155.939 142.228 161.509 146.509C161.773 151.319 150.455 156.564 160.976 156.032C167.154 154.169 171.44 160.81 176.527 154.819C181.214 160.372 196.009 151.272 192.674 162.621C188.164 165.53 181.587 163.772 177.07 167.775C169.623 164.055 163.693 171.103 155.448 170.212C146.292 171.852 136.977 172.514 127.693 172.528C112.464 171.325 96.9119 170.818 82.4238 165.515C74.2621 163.144 66.2973 158.496 59.1241 153.847ZM71.9862 159.42C79.9558 162.866 87.7486 166.499 96.4827 167.594C110.34 169.522 124.649 172.486 138.556 169.782C132.262 166.94 125.755 170.889 119.485 167.75C111.964 169.368 103.894 167.338 96.249 166.338C87.5551 162.465 78.1728 159.802 70.0313 154.776C59.8582 151.06 75.2927 159.541 78.04 160.228C84.3996 163.837 71.0466 158.377 69.1641 156.877C63.8377 153.889 63.1589 154.513 68.6367 157.548C69.74 158.193 70.8303 158.87 71.9862 159.42ZM56.8215 148.703C64.5442 151.563 56.7874 143.272 53.2485 143.754C51.6806 141.034 47.2582 139.315 50.3778 137.854C44.7663 139.802 44.4995 130.446 41.8618 131.783C35.9253 129.908 39.5513 123.268 32.4799 119.19C31.8344 114.893 25.4541 111.166 23.4191 104.685C22.5203 101.366 16.2107 91.8367 20.0867 100.705C23.3869 109.243 29.1933 116.554 34.0254 123.857C37.7775 130.81 42.2079 138.077 49.0411 142.415C51.3446 144.625 53.5686 148.01 56.8215 148.703ZM34.5738 124.277C35.9862 126.801 34.8433 123.11 34.5738 124.277ZM66.0702 152.132C67.7803 151.366 63.611 151.167 66.0702 152.132ZM70.2625 153.661C69.8283 151.55 68.3487 154.842 70.2625 153.661ZM75.5099 155.85C78.0082 153.471 71.6599 154.35 75.5099 155.85ZM84.5038 160.863C86.0219 158.619 79.6451 160.016 84.5038 160.863ZM67.2331 148.824C71.1134 146.313 62.2213 148.789 67.2331 148.824ZM71.1697 150.786C71.0597 149.459 69.7668 151.381 71.1697 150.786ZM90.8445 163.066C94.0073 165.062 109.314 167.441 99.7292 163.885C98.1255 164.223 81.9566 159.312 90.8445 163.066ZM59.6102 138.74C59.3027 137.409 54.7008 137.271 59.6102 138.74ZM68.7695 144.078C71.1532 142.416 63.8219 142.796 68.7695 144.078ZM76.4737 148.802C79.8944 147.513 70.9246 147.507 76.4737 148.802ZM55.8831 134.681C59.5945 137.527 70.8508 135.046 61.5669 132.982C57.3414 130.73 47.818 129.188 54.3093 134.34L55.8831 134.681ZM81.6918 150.433C83.2378 147.799 75.2089 148.929 81.6918 150.433ZM73.8494 144.201C82.9246 146.768 66.2179 138.461 71.6103 143.256L72.8054 143.797L73.8494 144.201ZM89.5729 153.288C81.8099 152.103 98.1676 153.37 89.5729 153.288ZM52.5762 129.709C52.2405 128.108 50.4552 129.843 52.5762 129.709ZM104.112 161.444C104.341 158.552 101.307 163.595 104.112 161.444ZM67.2434 138.691C66.7235 137.168 64.5579 138.628 67.2434 138.691ZM53.3913 128.704C58.3255 128.408 46.636 126.53 53.3913 128.704ZM36.9816 118.097C36.3674 115.732 31.6124 113.845 36.9816 118.097ZM80.0609 145.436C79.6358 145.662 79.1572 144.406 80.0609 145.436ZM106.875 161.891C106.789 160.316 105.415 162.487 106.875 161.891ZM77.6879 142.986C78.1705 140.957 73.4805 142.372 77.6879 142.986ZM57.7118 130.326C61.3826 129.933 51.8314 127.844 57.7118 130.326ZM91.5032 151.323C97.2236 149.057 85.9277 150.217 91.5032 151.323ZM73.9263 139.392C80.5191 140.242 66.0819 134.907 72.4798 138.914L73.9263 139.392ZM96.8393 153.48C102.994 149.801 100.965 162.097 107.282 154.519C113.513 149.97 101.901 160.144 109.58 155.33C115.134 151.616 123.337 157.091 128.519 158.877C132.245 158.694 135.868 162.1 139.688 160.028C147.043 158.047 125.307 157.09 131.005 153.576C124.276 155.534 119.304 151.241 115.993 146.931C108.445 145.188 99.7174 141.329 95.9503 134.649C94.4144 132.141 98.1691 135.002 94.6244 130.902C90.0761 126.857 87.8049 122.265 84.7516 117.347C81.1041 115.401 80.6792 109.674 80.3104 117.155C80.3393 112.434 75.9065 109.256 74.8245 110.577C74.8051 106.029 79.5685 108.309 76.234 104.944C75.5163 100.231 73.1531 95.3202 72.4428 89.999C71.3392 87.434 72.2874 81.9404 68.6762 87.747C67.3605 93.8837 68.2395 80.2057 70.2855 84.7162C72.9709 80.1137 69.3214 80.655 69.1719 81.2941C70.9212 77.4107 70.2791 71.9025 68.7155 74.0038C69.6476 69.888 70.188 58.8563 67.3204 60.8113C69.0587 56.5073 70.617 41.1172 63.0707 46.9849C60.0124 47.0279 54.7162 48.0951 52.2127 49.3402C60.0622 53.667 51.4232 50.9028 48.2279 50.2151C47.8116 54.2187 44.6467 52.4871 40.6928 52.5264C47.0081 53.3077 37.6175 58.9854 33.9946 56.7799C29.2895 59.0287 38.0553 64.6419 34.0891 66.3775C34.5765 68.9941 26.8808 65.4326 27.4852 71.4752C22.9175 69.5536 26.8563 78.6432 29.1415 75.569C36.9104 77.6716 34.6106 82.4653 34.8084 87.0189C33.5426 89.6723 28.5589 80.782 33.6985 81.1938C29.6438 74.607 29.2133 78.813 25.8439 81.8729C25.0601 82.0951 34.4383 86.2266 28.553 88.2696C33.7309 89.0685 33.8782 93.5997 34.9323 96.4669C38.0445 99.7084 37.4075 92.8876 41.1313 96.7832C38.7749 93.3127 28.6495 87.0048 36.8018 89.0279C36.7582 85.5349 35.3274 82.7183 37.825 82.7867C40.2984 78.3074 35.2346 93.8307 40.8097 88.1379C42.353 87.464 42.7353 83.653 45.5093 88.4978C49.5384 92.4614 46.9646 95.3336 41.2811 91.7043C42.2979 95.1537 48.8842 96.3865 47.6465 101.781C48.9586 106.525 50.7943 104.778 52.3945 104.503C53.6497 109.113 54.3625 105.724 54.422 103.53C60.1694 104.76 58.8232 108.158 60.6215 110.531C64.5819 112.319 54.9528 98.4141 61.7521 106.35C68.9057 112.809 64.4349 115.505 58.0153 114.47C62.0784 114.142 63.3887 119.963 68.471 119.759C73.1055 121.963 76.2433 130.432 68.2548 126.906C65.4841 124.408 55.6791 121.326 63.6875 126.078C71.0841 129.503 76.9587 131.553 84.0924 135.852C89.1977 139.497 91.4034 143.671 93.3385 144.497C89.0476 146.547 80.4076 142.861 86.8233 141.731C82.8216 141.002 78.3207 138.979 82.1537 143.965C85.413 146.686 93.7008 146.398 95.1865 146.706C93.9272 149.481 91.7658 149.701 95.2381 149.917C91.3644 151.981 96.4803 152.301 96.8393 153.48ZM88.9178 131.11C86.561 128.646 85.9516 124.029 88.4993 128.046C89.8058 128.571 92.6845 135.59 88.9178 131.11ZM114.715 147.497C116.185 147.402 114.758 148.614 114.715 147.497ZM85.1965 125.067C86.049 127.941 85.1061 121.341 85.1965 125.067ZM82.6325 121.617C86.3697 123.239 79.6681 115.889 82.6325 121.617ZM51.5618 100.172C53.3034 99.7078 52.4187 103.151 51.5618 100.172ZM76.2901 113.576C77.5471 116.946 77.3597 109.559 76.2901 113.576ZM58.8204 101.428C61.3964 103.507 57.5888 99.212 58.8204 101.428ZM73.8131 106.235C71.0046 99.9423 75.8015 102.798 74.4345 107.266L73.8131 106.235ZM47.958 88.9918C46.7023 86.9274 44.6253 80.8704 45.294 79.0213C45.8989 82.0327 51.6979 91.9809 48.1385 83.1423C44.2052 75.7332 52.8404 85.5472 53.7286 87.3952C54.1422 89.2336 51.3018 86.893 53.2264 91.2035C49.7166 86.2958 51.1544 93.9144 47.958 88.9918ZM39.9673 83.4856C41.7965 86.777 40.2962 78.6858 39.9673 83.4856ZM43.5615 84.7229C46.4698 89.7734 45.2767 81.1001 43.5615 84.7229ZM34.9154 78.0345C31.9404 75.0782 29.7876 72.3531 35.0546 76.1997C37.0841 76.2789 30.5456 70.0027 35.5433 74.2067C40.7986 75.1649 38.1384 82.8234 34.9154 78.0345ZM39.4571 77.9157C41.1848 76.2037 40.3743 79.601 39.4571 77.9157ZM42.2517 78.8116C45.4305 80.8698 39.6325 73.9022 42.2517 78.8116ZM36.6962 73.5025C28.0478 65.806 47.5635 77.527 38.1091 74.9294L36.6962 73.5025ZM61.4753 87.8997C57.7328 85.6557 60.4835 72.1022 61.7598 81.3719C65.3981 80.1949 61.5589 86.1591 64.2726 86.1039C63.8449 89.867 62.6309 91.2199 61.4753 87.8997ZM70.6405 93.3165C71.413 96.1092 71.0076 89.2319 70.6405 93.3165ZM69.0485 91.7436C69.4606 89.9986 69.0911 93.7985 69.0485 91.7436ZM38.3928 70.9734C32.8367 63.3078 54.5401 78.7276 41.9513 72.9177C40.6359 72.5737 39.0531 72.4509 38.3928 70.9734ZM56.0419 80.3309C57.2162 81.4009 55.5161 73.8763 56.0419 80.3309ZM69.4416 88.9268C70.4786 85.2501 69.5189 91.359 69.4416 88.9268ZM39.2439 68.0478C42.5461 67.3416 52.9286 73.8472 43.3941 69.9062C42.3347 68.7334 40.0763 69.2662 39.2439 68.0478ZM67.6006 82.181C67.9536 75.5809 69.572 78.2386 67.6128 83.1257L67.6006 82.181ZM41.702 65.7512C43.0474 63.7776 38.1303 56.8282 42.4108 63.2584C44.2603 64.728 47.7659 65.7204 44.6708 66.3386C49.5385 70.6328 43.4835 67.5023 41.702 65.7512ZM66.1981 80.1194C67.1276 72.601 67.0178 84.5242 66.1981 80.1194ZM38.892 58.807C39.9197 58.3678 39.4347 60.1764 38.892 58.807ZM45.2816 62.6101C48.3151 66.4584 46.926 59.1596 45.2816 62.6101ZM63.3051 72.6364C63.6452 74.564 63.2877 71.3112 63.3051 72.6364ZM62.2611 70.325C64.588 73.5926 59.7595 64.1534 62.2611 70.325ZM60.7251 66.2786C62.1523 69.4825 60.3052 63.7284 60.7251 66.2786ZM63.2249 62.2151C61.5082 59.19 65.3926 48.8841 65.8261 55.2757C64.0142 60.256 65.3034 63.042 66.5674 56.3621C68.9015 51.1049 66.0632 66.7361 63.2249 62.2151ZM65.7937 46.8885C66.5421 45.9696 65.9598 47.9956 65.7937 46.8885ZM61.5037 131.423C61.6315 131.988 60.4862 130.535 61.5037 131.423ZM70.3415 135.893C75.2575 137.155 75.2323 135.128 70.7893 134.527C68.3995 132.303 60.8588 129.945 67.6081 134.251C68.0551 135.383 69.4675 135.357 70.3415 135.893ZM52.8873 124.3C55.5955 126.32 63.0885 130.024 56.7455 125.069C58.884 122.584 52.6521 121.262 54.7194 119.6C49.4612 116.382 50.5714 116.668 54.2553 116.77C47.9359 113.945 55.1674 114.156 54.8269 112.709C52.3902 112.228 42.7239 108.412 48.4105 113.022C42.6297 110.075 47.0329 114.12 45.2857 113.693C39.3743 112.081 50.5501 118.195 44.3468 116.677C47.7381 119.365 53.4751 123.561 45.7806 119.521C44.7668 120.981 51.2869 123.193 52.8873 124.3ZM62.1305 129.611C73.3692 133.232 56.6204 125.186 62.1305 129.611ZM109.447 158.275C109.592 156.045 107.911 160.177 109.447 158.275ZM114.31 160.322C116.903 157.809 114.416 164.324 118.607 159.707C118.652 156.401 118.478 154.449 113.791 158.464C112.499 159.18 111.922 162.227 114.31 160.322ZM37.1116 111.839C36.3152 108.709 31.5296 108.725 37.1116 111.839ZM42.3046 115.242C40.3762 112.045 35.4241 112.348 42.3046 115.242ZM71.848 133.059C74.7324 135.621 85.0956 134.939 75.3513 133.375C73.9081 131.241 66.1871 131.754 71.848 133.059ZM112.46 158.141C116.9 154.416 108.159 159.803 112.46 158.141ZM121.693 164.486C121.721 163.29 119.78 165.009 121.693 164.486ZM121.707 162.812C116.944 163.12 126.623 157.603 121.707 162.812ZM24.339 101.147C20.1491 95.1683 21.7344 92.4811 17.6939 87.5997C16.929 83.867 10.7622 75.3965 14.5043 84.3703C17.9318 89.6186 18.9503 97.7446 24.339 101.147ZM120.165 161.156C129.21 155.311 116.453 158.61 120.165 161.156ZM127.069 163.861C131.599 159.972 124.205 163.048 127.069 163.861ZM35.5723 105.232C36.8685 103.303 32.2247 104.985 35.5723 105.232ZM125.628 162.014C130.013 159.187 124.618 159.621 124.833 162.274L125.628 162.014ZM66.114 124.502C65.9633 122.593 63.7983 124.665 66.114 124.502ZM69.792 126.619C68.6231 124.256 67.9948 126.99 69.792 126.619ZM132.664 163.925C138.283 159.872 129.259 163.149 131.485 164.693L132.664 163.925ZM130.513 162.885C135.09 159.05 125.681 164.585 130.513 162.885ZM141.505 170.205C144.578 168.147 137.772 169.539 141.505 170.205ZM38.3904 103.841C42.5094 104.764 54.8508 113.985 47.5699 104.479C43.8409 103.375 46.0773 94.2596 42.2737 95.8729C44.8267 100.138 44.3742 101.953 39.0141 99.2643C32.2773 95.9757 35.2282 100.894 36.5448 102.249C34.7506 102.657 38.918 103.807 38.3904 103.841ZM19.6246 89.0207C20.362 85.9708 12.8348 72.2419 16.0701 82.1415C17.238 84.2152 17.1192 88.1454 19.6246 89.0207ZM54.068 110.256C53.9672 110.005 51.947 108.482 54.068 110.256ZM59.291 111.471C59.2883 108.24 53.5178 110.159 59.291 111.471ZM104.552 140.005C101.14 139.953 103.689 137.797 104.552 140.005ZM106.726 141.592C106.405 140.357 105.472 141.831 106.726 141.592ZM124.666 152.892C126.392 151.618 122.513 152.729 124.666 152.892ZM28.9983 91.4137C33.9335 89.503 23.7105 90.0512 28.9983 91.4137ZM100.568 136.503C100.513 133.308 97.4218 137.296 100.568 136.503ZM27.0483 86.8699C30.2185 85.799 24.1157 86.1646 27.0483 86.8699ZM36.2499 91.3271C36.1924 90.277 35.2765 91.7246 36.2499 91.3271ZM148.481 160.149C152.558 159.322 161.847 162.224 163.349 159.068C158.398 158.948 146.221 155.575 145.645 159.873L146.729 160.044L148.481 160.149ZM39.1744 92.0641C39.2452 88.8266 36.6497 91.9432 39.1744 92.0641ZM14.9812 75.2818C13.8825 69.1134 10.8024 74.3483 14.9812 75.2818ZM20.7504 76.732C20.8213 74.7513 15.4698 74.9497 20.7504 76.732ZM24.0473 78.3512C23.3013 79.3264 23.0943 77.5792 24.0473 78.3512ZM44.792 91.6589C45.7686 90.7618 42.4799 90.9944 44.792 91.6589ZM21.8514 74.6993C21.2938 70.0403 15.1694 74.0012 21.8514 74.6993ZM10.0236 67.0248C9.85542 64.8746 8.87101 67.8359 10.0236 67.0248ZM11.783 65.6961C11.4959 63.1465 10.2725 66.0205 11.783 65.6961ZM21.5038 71.4986C25.6143 69.8839 14.0165 68.1587 20.6639 71.1935L21.5038 71.4986ZM151.601 151.858C154.232 149.446 148.258 151.112 151.601 151.858ZM167.318 160.005C168.372 156.886 164.664 160.415 167.318 160.005ZM22.4972 66.4036C22.9302 63.3868 19.2384 67.0026 22.4972 66.4036ZM8.66688 57.1374C7.92392 52.8783 8.02555 45.4023 15.132 47.9288C5.64606 49.8121 21.6974 59.7189 19.6704 51.8972C23.659 52.0924 27.473 49.5399 25.3799 53.4136C33.2386 52.5456 38.687 45.7309 46.278 46.6859C52.1911 45.9034 58.6562 45.3099 65.0283 42.9297C70.2673 42.5523 75.3106 36.9117 72.439 33.5683C65.2944 32.9638 57.8156 33.8577 49.9189 35.4273C41.1683 37.2464 33.2198 40.7026 24.3907 42.1862C15.7848 43.3422 26.1217 45.3714 23.6567 45.8234C19.166 47.3816 29.0121 48.4323 23.0745 50.0748C19.4075 49.3776 15.5906 48.1177 17.157 44.2533C8.9133 45.323 1.66946 48.7445 8.18247 57.1335L8.66688 57.1374ZM28.5312 47.0206C30.464 39.9001 38.8864 52.8798 31.6992 47.9664C30.8408 47.3239 29.4289 46.7998 28.5312 47.0206ZM28.9072 43.5684C31.6969 41.4901 30.3902 44.7335 28.9072 43.5684ZM32.4494 43.6246C32.7013 40.3481 40.5582 45.3591 33.7449 44.8041L32.4494 43.6246ZM37.2949 41.6764C39.0643 39.6089 37.8035 43.5155 37.2949 41.6764ZM38.5344 40.8463C41.4808 37.3061 55.22 38.5869 45.1634 40.5012C42.4678 38.4718 40.4016 41.6977 38.5344 40.8463ZM56.4644 38.0825C65.3722 41.5189 56.0162 28.4122 56.4644 38.0825ZM61.552 38.0546C63.412 33.1807 68.7701 36.0989 62.4127 37.0752C62.5508 37.5939 62.2263 39.5914 61.552 38.0546ZM20.491 63.9019C26.0486 60.4987 14.5911 60.9493 20.491 63.9019ZM24.6003 65.0437C26.5488 62.9719 20.3664 64.2034 24.6003 65.0437ZM12.4926 56.4508C15.6682 54.0114 8.73475 55.5233 12.4926 56.4508ZM176.595 159.113C176.687 156.283 174.168 160.389 176.595 159.113ZM159.92 147.734C160.394 144.475 157.777 148.018 159.92 147.734ZM181.18 160.211C185.62 160.226 194.633 158.832 184.973 158.836C183.457 159.073 176.139 159.022 181.18 160.211ZM28.2148 63.0465C31.8081 62.7997 33.8367 59.0829 27.5199 59.2965C17.7299 58.283 36.1574 62.6487 26.264 61.4004C24.9346 62.2807 28.1376 63.2901 28.2148 63.0465ZM31.3794 64.6483C31.0042 62.3412 30.2683 65.8739 31.3794 64.6483ZM35.1333 54.6384C36.6926 52.7043 32.9756 54.1213 35.1333 54.6384ZM23.1832 34.6631C29.5961 32.4815 38.3656 30.03 41.3935 35.7373C38.3119 32.0284 40.1499 28.3771 43.0605 33.7999C47.1761 39.2866 49.2364 31.3044 46.5596 29.4641C49.61 33.2543 53.0796 35.0454 48.602 29.7036C53.4677 23.8507 38.8593 30.4701 35.5389 30.4034C33.9413 31.1205 19.0453 34.2023 23.1832 34.6631ZM26.9415 27.4653C30.5988 24.7049 39.5905 29.1073 33.8206 24.7219C33.2565 24.2236 21.1845 28.0474 26.9415 27.4653ZM40.275 28.0158C44.5554 28.125 38.4287 22.2655 43.5293 24.9206C42.6916 22.184 37.5907 21.6716 35.097 20.5783C33.6865 23.0803 37.968 28.0494 40.275 28.0158ZM29.2795 15.9123C30.7603 13.9049 26.6843 16.93 29.2795 15.9123ZM34.7291 17.2166C41.6269 16.3017 32.9708 14.2461 33.3391 17.1431L34.7291 17.2166ZM24.5536 9.25457C19.6967 2.91436 33.6876 10.3203 28.753 3.68192C24.5997 0.374676 20.6087 7.4037 24.5536 9.25457ZM86.8837 42.8274C89.1113 38.8784 77.6867 37.5044 85.3828 41.4278C86.0914 41.6646 85.931 43.1005 86.8837 42.8274Z" stroke="white" stroke-width="4" mask="url(#path-2-outside-1_21_54)"/>
<path d="M59.1241 153.847C51.8419 148.119 44.0738 142.628 38.7655 134.895C27.596 121.258 18.9961 105.47 13.1168 88.8783C9.56315 78.0897 8.3461 66.523 3.765 56.1512C-1.02729 48.6182 4.58622 40.3833 12.8377 37.9888C16.5115 37.2837 22.971 33.8186 15.1737 36.2953C8.18308 41.4241 7.50654 31.6397 14.6748 31.0201C19.5669 30.3698 21.3677 26.3651 19.6948 22.7598C14.4435 19.3354 32.4286 15.5718 23.3792 10.462C13.9522 0.291382 36.5655 -1.6665 30.9865 9.88426C29.651 18.7663 46.7877 8.25635 42.8116 18.5132C46.8529 23.4389 57.9451 19.6343 57.67 26.5446C63.5571 26.9493 65.5775 31.9027 71.104 32.2829C76.8315 34.8695 87.2148 36.9077 89.1638 43.3621C83.4813 47.8609 70.3229 34.0694 69.6907 46.5225C71.4073 64.9186 70.97 83.8689 77.7006 101.387C80.8841 111.995 88.6018 120.345 95.5717 128.607C102.24 136.698 111.274 142.394 120.481 147.19C128.557 150.999 137.264 153.526 146.066 155.111C149.636 152.38 155.939 142.228 161.509 146.509C161.773 151.319 150.455 156.564 160.976 156.032C167.154 154.169 171.44 160.81 176.527 154.819C181.214 160.372 196.009 151.272 192.674 162.621C188.164 165.53 181.587 163.772 177.07 167.775C169.623 164.055 163.693 171.103 155.448 170.212C146.292 171.852 136.977 172.514 127.693 172.528C112.464 171.325 96.9119 170.818 82.4238 165.515C74.2621 163.144 66.2973 158.496 59.1241 153.847ZM71.9862 159.42C79.9558 162.866 87.7486 166.499 96.4827 167.594C110.34 169.522 124.649 172.486 138.556 169.782C132.262 166.94 125.755 170.889 119.485 167.75C111.964 169.368 103.894 167.338 96.249 166.338C87.5551 162.465 78.1728 159.802 70.0313 154.776C59.8582 151.06 75.2927 159.541 78.04 160.228C84.3996 163.837 71.0466 158.377 69.1641 156.877C63.8377 153.889 63.1589 154.513 68.6367 157.548C69.74 158.193 70.8303 158.87 71.9862 159.42ZM56.8215 148.703C64.5442 151.563 56.7874 143.272 53.2485 143.754C51.6806 141.034 47.2582 139.315 50.3778 137.854C44.7663 139.802 44.4995 130.446 41.8618 131.783C35.9253 129.908 39.5513 123.268 32.4799 119.19C31.8344 114.893 25.4541 111.166 23.4191 104.685C22.5203 101.366 16.2107 91.8367 20.0867 100.705C23.3869 109.243 29.1933 116.554 34.0254 123.857C37.7775 130.81 42.2079 138.077 49.0411 142.415C51.3446 144.625 53.5686 148.01 56.8215 148.703ZM34.5738 124.277C35.9862 126.801 34.8433 123.11 34.5738 124.277ZM66.0702 152.132C67.7803 151.366 63.611 151.167 66.0702 152.132ZM70.2625 153.661C69.8283 151.55 68.3487 154.842 70.2625 153.661ZM75.5099 155.85C78.0082 153.471 71.6599 154.35 75.5099 155.85ZM84.5038 160.863C86.0219 158.619 79.6451 160.016 84.5038 160.863ZM67.2331 148.824C71.1134 146.313 62.2213 148.789 67.2331 148.824ZM71.1697 150.786C71.0597 149.459 69.7668 151.381 71.1697 150.786ZM90.8445 163.066C94.0073 165.062 109.314 167.441 99.7292 163.885C98.1255 164.223 81.9566 159.312 90.8445 163.066ZM59.6102 138.74C59.3027 137.409 54.7008 137.271 59.6102 138.74ZM68.7695 144.078C71.1532 142.416 63.8219 142.796 68.7695 144.078ZM76.4737 148.802C79.8944 147.513 70.9246 147.507 76.4737 148.802ZM55.8831 134.681C59.5945 137.527 70.8508 135.046 61.5669 132.982C57.3414 130.73 47.818 129.188 54.3093 134.34L55.8831 134.681ZM81.6918 150.433C83.2378 147.799 75.2089 148.929 81.6918 150.433ZM73.8494 144.201C82.9246 146.768 66.2179 138.461 71.6103 143.256L72.8054 143.797L73.8494 144.201ZM89.5729 153.288C81.8099 152.103 98.1676 153.37 89.5729 153.288ZM52.5762 129.709C52.2405 128.108 50.4552 129.843 52.5762 129.709ZM104.112 161.444C104.341 158.552 101.307 163.595 104.112 161.444ZM67.2434 138.691C66.7235 137.168 64.5579 138.628 67.2434 138.691ZM53.3913 128.704C58.3255 128.408 46.636 126.53 53.3913 128.704ZM36.9816 118.097C36.3674 115.732 31.6124 113.845 36.9816 118.097ZM80.0609 145.436C79.6358 145.662 79.1572 144.406 80.0609 145.436ZM106.875 161.891C106.789 160.316 105.415 162.487 106.875 161.891ZM77.6879 142.986C78.1705 140.957 73.4805 142.372 77.6879 142.986ZM57.7118 130.326C61.3826 129.933 51.8314 127.844 57.7118 130.326ZM91.5032 151.323C97.2236 149.057 85.9277 150.217 91.5032 151.323ZM73.9263 139.392C80.5191 140.242 66.0819 134.907 72.4798 138.914L73.9263 139.392ZM96.8393 153.48C102.994 149.801 100.965 162.097 107.282 154.519C113.513 149.97 101.901 160.144 109.58 155.33C115.134 151.616 123.337 157.091 128.519 158.877C132.245 158.694 135.868 162.1 139.688 160.028C147.043 158.047 125.307 157.09 131.005 153.576C124.276 155.534 119.304 151.241 115.993 146.931C108.445 145.188 99.7174 141.329 95.9503 134.649C94.4144 132.141 98.1691 135.002 94.6244 130.902C90.0761 126.857 87.8049 122.265 84.7516 117.347C81.1041 115.401 80.6792 109.674 80.3104 117.155C80.3393 112.434 75.9065 109.256 74.8245 110.577C74.8051 106.029 79.5685 108.309 76.234 104.944C75.5163 100.231 73.1531 95.3202 72.4428 89.999C71.3392 87.434 72.2874 81.9404 68.6762 87.747C67.3605 93.8837 68.2395 80.2057 70.2855 84.7162C72.9709 80.1137 69.3214 80.655 69.1719 81.2941C70.9212 77.4107 70.2791 71.9025 68.7155 74.0038C69.6476 69.888 70.188 58.8563 67.3204 60.8113C69.0587 56.5073 70.617 41.1172 63.0707 46.9849C60.0124 47.0279 54.7162 48.0951 52.2127 49.3402C60.0622 53.667 51.4232 50.9028 48.2279 50.2151C47.8116 54.2187 44.6467 52.4871 40.6928 52.5264C47.0081 53.3077 37.6175 58.9854 33.9946 56.7799C29.2895 59.0287 38.0553 64.6419 34.0891 66.3775C34.5765 68.9941 26.8808 65.4326 27.4852 71.4752C22.9175 69.5536 26.8563 78.6432 29.1415 75.569C36.9104 77.6716 34.6106 82.4653 34.8084 87.0189C33.5426 89.6723 28.5589 80.782 33.6985 81.1938C29.6438 74.607 29.2133 78.813 25.8439 81.8729C25.0601 82.0951 34.4383 86.2266 28.553 88.2696C33.7309 89.0685 33.8782 93.5997 34.9323 96.4669C38.0445 99.7084 37.4075 92.8876 41.1313 96.7832C38.7749 93.3127 28.6495 87.0048 36.8018 89.0279C36.7582 85.5349 35.3274 82.7183 37.825 82.7867C40.2984 78.3074 35.2346 93.8307 40.8097 88.1379C42.353 87.464 42.7353 83.653 45.5093 88.4978C49.5384 92.4614 46.9646 95.3336 41.2811 91.7043C42.2979 95.1537 48.8842 96.3865 47.6465 101.781C48.9586 106.525 50.7943 104.778 52.3945 104.503C53.6497 109.113 54.3625 105.724 54.422 103.53C60.1694 104.76 58.8232 108.158 60.6215 110.531C64.5819 112.319 54.9528 98.4141 61.7521 106.35C68.9057 112.809 64.4349 115.505 58.0153 114.47C62.0784 114.142 63.3887 119.963 68.471 119.759C73.1055 121.963 76.2433 130.432 68.2548 126.906C65.4841 124.408 55.6791 121.326 63.6875 126.078C71.0841 129.503 76.9587 131.553 84.0924 135.852C89.1977 139.497 91.4034 143.671 93.3385 144.497C89.0476 146.547 80.4076 142.861 86.8233 141.731C82.8216 141.002 78.3207 138.979 82.1537 143.965C85.413 146.686 93.7008 146.398 95.1865 146.706C93.9272 149.481 91.7658 149.701 95.2381 149.917C91.3644 151.981 96.4803 152.301 96.8393 153.48ZM88.9178 131.11C86.561 128.646 85.9516 124.029 88.4993 128.046C89.8058 128.571 92.6845 135.59 88.9178 131.11ZM114.715 147.497C116.185 147.402 114.758 148.614 114.715 147.497ZM85.1965 125.067C86.049 127.941 85.1061 121.341 85.1965 125.067ZM82.6325 121.617C86.3697 123.239 79.6681 115.889 82.6325 121.617ZM51.5618 100.172C53.3034 99.7078 52.4187 103.151 51.5618 100.172ZM76.2901 113.576C77.5471 116.946 77.3597 109.559 76.2901 113.576ZM58.8204 101.428C61.3964 103.507 57.5888 99.212 58.8204 101.428ZM73.8131 106.235C71.0046 99.9423 75.8015 102.798 74.4345 107.266L73.8131 106.235ZM47.958 88.9918C46.7023 86.9274 44.6253 80.8704 45.294 79.0213C45.8989 82.0327 51.6979 91.9809 48.1385 83.1423C44.2052 75.7332 52.8404 85.5472 53.7286 87.3952C54.1422 89.2336 51.3018 86.893 53.2264 91.2035C49.7166 86.2958 51.1544 93.9144 47.958 88.9918ZM39.9673 83.4856C41.7965 86.777 40.2962 78.6858 39.9673 83.4856ZM43.5615 84.7229C46.4698 89.7734 45.2767 81.1001 43.5615 84.7229ZM34.9154 78.0345C31.9404 75.0782 29.7876 72.3531 35.0546 76.1997C37.0841 76.2789 30.5456 70.0027 35.5433 74.2067C40.7986 75.1649 38.1384 82.8234 34.9154 78.0345ZM39.4571 77.9157C41.1848 76.2037 40.3743 79.601 39.4571 77.9157ZM42.2517 78.8116C45.4305 80.8698 39.6325 73.9022 42.2517 78.8116ZM36.6962 73.5025C28.0478 65.806 47.5635 77.527 38.1091 74.9294L36.6962 73.5025ZM61.4753 87.8997C57.7328 85.6557 60.4835 72.1022 61.7598 81.3719C65.3981 80.1949 61.5589 86.1591 64.2726 86.1039C63.8449 89.867 62.6309 91.2199 61.4753 87.8997ZM70.6405 93.3165C71.413 96.1092 71.0076 89.2319 70.6405 93.3165ZM69.0485 91.7436C69.4606 89.9986 69.0911 93.7985 69.0485 91.7436ZM38.3928 70.9734C32.8367 63.3078 54.5401 78.7276 41.9513 72.9177C40.6359 72.5737 39.0531 72.4509 38.3928 70.9734ZM56.0419 80.3309C57.2162 81.4009 55.5161 73.8763 56.0419 80.3309ZM69.4416 88.9268C70.4786 85.2501 69.5189 91.359 69.4416 88.9268ZM39.2439 68.0478C42.5461 67.3416 52.9286 73.8472 43.3941 69.9062C42.3347 68.7334 40.0763 69.2662 39.2439 68.0478ZM67.6006 82.181C67.9536 75.5809 69.572 78.2386 67.6128 83.1257L67.6006 82.181ZM41.702 65.7512C43.0474 63.7776 38.1303 56.8282 42.4108 63.2584C44.2603 64.728 47.7659 65.7204 44.6708 66.3386C49.5385 70.6328 43.4835 67.5023 41.702 65.7512ZM66.1981 80.1194C67.1276 72.601 67.0178 84.5242 66.1981 80.1194ZM38.892 58.807C39.9197 58.3678 39.4347 60.1764 38.892 58.807ZM45.2816 62.6101C48.3151 66.4584 46.926 59.1596 45.2816 62.6101ZM63.3051 72.6364C63.6452 74.564 63.2877 71.3112 63.3051 72.6364ZM62.2611 70.325C64.588 73.5926 59.7595 64.1534 62.2611 70.325ZM60.7251 66.2786C62.1523 69.4825 60.3052 63.7284 60.7251 66.2786ZM63.2249 62.2151C61.5082 59.19 65.3926 48.8841 65.8261 55.2757C64.0142 60.256 65.3034 63.042 66.5674 56.3621C68.9015 51.1049 66.0632 66.7361 63.2249 62.2151ZM65.7937 46.8885C66.5421 45.9696 65.9598 47.9956 65.7937 46.8885ZM61.5037 131.423C61.6315 131.988 60.4862 130.535 61.5037 131.423ZM70.3415 135.893C75.2575 137.155 75.2323 135.128 70.7893 134.527C68.3995 132.303 60.8588 129.945 67.6081 134.251C68.0551 135.383 69.4675 135.357 70.3415 135.893ZM52.8873 124.3C55.5955 126.32 63.0885 130.024 56.7455 125.069C58.884 122.584 52.6521 121.262 54.7194 119.6C49.4612 116.382 50.5714 116.668 54.2553 116.77C47.9359 113.945 55.1674 114.156 54.8269 112.709C52.3902 112.228 42.7239 108.412 48.4105 113.022C42.6297 110.075 47.0329 114.12 45.2857 113.693C39.3743 112.081 50.5501 118.195 44.3468 116.677C47.7381 119.365 53.4751 123.561 45.7806 119.521C44.7668 120.981 51.2869 123.193 52.8873 124.3ZM62.1305 129.611C73.3692 133.232 56.6204 125.186 62.1305 129.611ZM109.447 158.275C109.592 156.045 107.911 160.177 109.447 158.275ZM114.31 160.322C116.903 157.809 114.416 164.324 118.607 159.707C118.652 156.401 118.478 154.449 113.791 158.464C112.499 159.18 111.922 162.227 114.31 160.322ZM37.1116 111.839C36.3152 108.709 31.5296 108.725 37.1116 111.839ZM42.3046 115.242C40.3762 112.045 35.4241 112.348 42.3046 115.242ZM71.848 133.059C74.7324 135.621 85.0956 134.939 75.3513 133.375C73.9081 131.241 66.1871 131.754 71.848 133.059ZM112.46 158.141C116.9 154.416 108.159 159.803 112.46 158.141ZM121.693 164.486C121.721 163.29 119.78 165.009 121.693 164.486ZM121.707 162.812C116.944 163.12 126.623 157.603 121.707 162.812ZM24.339 101.147C20.1491 95.1683 21.7344 92.4811 17.6939 87.5997C16.929 83.867 10.7622 75.3965 14.5043 84.3703C17.9318 89.6186 18.9503 97.7446 24.339 101.147ZM120.165 161.156C129.21 155.311 116.453 158.61 120.165 161.156ZM127.069 163.861C131.599 159.972 124.205 163.048 127.069 163.861ZM35.5723 105.232C36.8685 103.303 32.2247 104.985 35.5723 105.232ZM125.628 162.014C130.013 159.187 124.618 159.621 124.833 162.274L125.628 162.014ZM66.114 124.502C65.9633 122.593 63.7983 124.665 66.114 124.502ZM69.792 126.619C68.6231 124.256 67.9948 126.99 69.792 126.619ZM132.664 163.925C138.283 159.872 129.259 163.149 131.485 164.693L132.664 163.925ZM130.513 162.885C135.09 159.05 125.681 164.585 130.513 162.885ZM141.505 170.205C144.578 168.147 137.772 169.539 141.505 170.205ZM38.3904 103.841C42.5094 104.764 54.8508 113.985 47.5699 104.479C43.8409 103.375 46.0773 94.2596 42.2737 95.8729C44.8267 100.138 44.3742 101.953 39.0141 99.2643C32.2773 95.9757 35.2282 100.894 36.5448 102.249C34.7506 102.657 38.918 103.807 38.3904 103.841ZM19.6246 89.0207C20.362 85.9708 12.8348 72.2419 16.0701 82.1415C17.238 84.2152 17.1192 88.1454 19.6246 89.0207ZM54.068 110.256C53.9672 110.005 51.947 108.482 54.068 110.256ZM59.291 111.471C59.2883 108.24 53.5178 110.159 59.291 111.471ZM104.552 140.005C101.14 139.953 103.689 137.797 104.552 140.005ZM106.726 141.592C106.405 140.357 105.472 141.831 106.726 141.592ZM124.666 152.892C126.392 151.618 122.513 152.729 124.666 152.892ZM28.9983 91.4137C33.9335 89.503 23.7105 90.0512 28.9983 91.4137ZM100.568 136.503C100.513 133.308 97.4218 137.296 100.568 136.503ZM27.0483 86.8699C30.2185 85.799 24.1157 86.1646 27.0483 86.8699ZM36.2499 91.3271C36.1924 90.277 35.2765 91.7246 36.2499 91.3271ZM148.481 160.149C152.558 159.322 161.847 162.224 163.349 159.068C158.398 158.948 146.221 155.575 145.645 159.873L146.729 160.044L148.481 160.149ZM39.1744 92.0641C39.2452 88.8266 36.6497 91.9432 39.1744 92.0641ZM14.9812 75.2818C13.8825 69.1134 10.8024 74.3483 14.9812 75.2818ZM20.7504 76.732C20.8213 74.7513 15.4698 74.9497 20.7504 76.732ZM24.0473 78.3512C23.3013 79.3264 23.0943 77.5792 24.0473 78.3512ZM44.792 91.6589C45.7686 90.7618 42.4799 90.9944 44.792 91.6589ZM21.8514 74.6993C21.2938 70.0403 15.1694 74.0012 21.8514 74.6993ZM10.0236 67.0248C9.85542 64.8746 8.87101 67.8359 10.0236 67.0248ZM11.783 65.6961C11.4959 63.1465 10.2725 66.0205 11.783 65.6961ZM21.5038 71.4986C25.6143 69.8839 14.0165 68.1587 20.6639 71.1935L21.5038 71.4986ZM151.601 151.858C154.232 149.446 148.258 151.112 151.601 151.858ZM167.318 160.005C168.372 156.886 164.664 160.415 167.318 160.005ZM22.4972 66.4036C22.9302 63.3868 19.2384 67.0026 22.4972 66.4036ZM8.66688 57.1374C7.92392 52.8783 8.02555 45.4023 15.132 47.9288C5.64606 49.8121 21.6974 59.7189 19.6704 51.8972C23.659 52.0924 27.473 49.5399 25.3799 53.4136C33.2386 52.5456 38.687 45.7309 46.278 46.6859C52.1911 45.9034 58.6562 45.3099 65.0283 42.9297C70.2673 42.5523 75.3106 36.9117 72.439 33.5683C65.2944 32.9638 57.8156 33.8577 49.9189 35.4273C41.1683 37.2464 33.2198 40.7026 24.3907 42.1862C15.7848 43.3422 26.1217 45.3714 23.6567 45.8234C19.166 47.3816 29.0121 48.4323 23.0745 50.0748C19.4075 49.3776 15.5906 48.1177 17.157 44.2533C8.9133 45.323 1.66946 48.7445 8.18247 57.1335L8.66688 57.1374ZM28.5312 47.0206C30.464 39.9001 38.8864 52.8798 31.6992 47.9664C30.8408 47.3239 29.4289 46.7998 28.5312 47.0206ZM28.9072 43.5684C31.6969 41.4901 30.3902 44.7335 28.9072 43.5684ZM32.4494 43.6246C32.7013 40.3481 40.5582 45.3591 33.7449 44.8041L32.4494 43.6246ZM37.2949 41.6764C39.0643 39.6089 37.8035 43.5155 37.2949 41.6764ZM38.5344 40.8463C41.4808 37.3061 55.22 38.5869 45.1634 40.5012C42.4678 38.4718 40.4016 41.6977 38.5344 40.8463ZM56.4644 38.0825C65.3722 41.5189 56.0162 28.4122 56.4644 38.0825ZM61.552 38.0546C63.412 33.1807 68.7701 36.0989 62.4127 37.0752C62.5508 37.5939 62.2263 39.5914 61.552 38.0546ZM20.491 63.9019C26.0486 60.4987 14.5911 60.9493 20.491 63.9019ZM24.6003 65.0437C26.5488 62.9719 20.3664 64.2034 24.6003 65.0437ZM12.4926 56.4508C15.6682 54.0114 8.73475 55.5233 12.4926 56.4508ZM176.595 159.113C176.687 156.283 174.168 160.389 176.595 159.113ZM159.92 147.734C160.394 144.475 157.777 148.018 159.92 147.734ZM181.18 160.211C185.62 160.226 194.633 158.832 184.973 158.836C183.457 159.073 176.139 159.022 181.18 160.211ZM28.2148 63.0465C31.8081 62.7997 33.8367 59.0829 27.5199 59.2965C17.7299 58.283 36.1574 62.6487 26.264 61.4004C24.9346 62.2807 28.1376 63.2901 28.2148 63.0465ZM31.3794 64.6483C31.0042 62.3412 30.2683 65.8739 31.3794 64.6483ZM35.1333 54.6384C36.6926 52.7043 32.9756 54.1213 35.1333 54.6384ZM23.1832 34.6631C29.5961 32.4815 38.3656 30.03 41.3935 35.7373C38.3119 32.0284 40.1499 28.3771 43.0605 33.7999C47.1761 39.2866 49.2364 31.3044 46.5596 29.4641C49.61 33.2543 53.0796 35.0454 48.602 29.7036C53.4677 23.8507 38.8593 30.4701 35.5389 30.4034C33.9413 31.1205 19.0453 34.2023 23.1832 34.6631ZM26.9415 27.4653C30.5988 24.7049 39.5905 29.1073 33.8206 24.7219C33.2565 24.2236 21.1845 28.0474 26.9415 27.4653ZM40.275 28.0158C44.5554 28.125 38.4287 22.2655 43.5293 24.9206C42.6916 22.184 37.5907 21.6716 35.097 20.5783C33.6865 23.0803 37.968 28.0494 40.275 28.0158ZM29.2795 15.9123C30.7603 13.9049 26.6843 16.93 29.2795 15.9123ZM34.7291 17.2166C41.6269 16.3017 32.9708 14.2461 33.3391 17.1431L34.7291 17.2166ZM24.5536 9.25457C19.6967 2.91436 33.6876 10.3203 28.753 3.68192C24.5997 0.374676 20.6087 7.4037 24.5536 9.25457ZM86.8837 42.8274C89.1113 38.8784 77.6867 37.5044 85.3828 41.4278C86.0914 41.6646 85.931 43.1005 86.8837 42.8274Z" stroke="white" stroke-width="4" mask="url(#path-2-outside-1_21_54)"/>
</svg>
