<svg width="1125" height="1125" viewBox="0 0 1125 1125" fill="none" xmlns="http://www.w3.org/2000/svg">
<rect width="1125" height="1125" rx="120" fill="white"/>
<path d="M459.113 769.259C444.631 755.775 430.411 742.531 415.467 728.613C487.089 692.114 557.31 656.33 628.038 620.286C629.861 623.632 631.588 626.775 633.289 629.932C646.399 654.258 662.133 676.732 681.553 696.421C716.249 731.595 757.953 753.762 806.656 762.492C829.89 766.657 853.293 767.514 876.803 765.45C878.284 765.32 879.752 765.042 881.094 764.851C881.345 764.336 881.651 764.017 881.608 763.754C879.905 753.312 878.72 754.474 889.436 750.289C893.619 748.655 897.837 747.1 901.969 745.345C906.434 743.448 910.716 742.091 915.06 745.784C915.726 746.351 917.556 745.923 918.683 745.509C924.928 743.214 931.111 740.75 937.337 738.403C943.421 736.111 946.906 737.262 950.492 742.698C955.903 750.9 961.318 759.099 966.678 767.335C973.063 777.144 970.468 785.285 959.629 789.569C952.203 792.504 944.79 795.474 937.318 798.286C934.935 799.183 933.379 800.014 933.688 803.147C934.116 807.471 931.567 810.469 927.726 812.052C919.884 815.285 912.015 818.482 904.026 821.325C897.136 823.777 894.01 821.438 890.437 812.086C873.173 818.054 856.037 824.4 838.637 829.914C785.066 846.893 730.283 856.074 673.932 853.469C602.88 850.184 538.375 827.776 480.729 785.983C473.452 780.707 466.485 775.003 459.113 769.259Z" fill="#3BABC3"/>
<path d="M352.487 562.226C342.431 566.752 332.65 570.973 323.024 575.52C319.704 577.088 318.213 576.44 316.489 573.238C303.877 549.806 295.183 524.873 287.804 499.424C285.45 491.306 283.278 483.135 280.937 474.682C279.769 474.971 278.685 475.19 277.631 475.509C270.205 477.761 266.435 476.33 262.765 469.634C255.406 456.208 248.097 442.755 240.794 429.298C235.897 420.273 237.348 412.709 245.852 406.798C250.028 403.895 254.915 401.93 259.637 399.907C355.95 358.633 452.284 317.409 548.626 276.203C550.598 275.359 552.663 274.587 554.762 274.212C561.204 273.059 565.963 276.692 566.376 283.174C566.682 287.989 566.407 292.84 566.698 297.657C568.212 322.732 569.492 347.828 571.494 372.866C573.55 398.57 576.424 424.208 578.776 449.89C579.745 460.471 579.575 460.54 570.095 464.786C497.677 497.219 425.249 529.631 352.487 562.226Z" fill="#3BABC3"/>
<path d="M470.717 657.408C444.019 670.975 417.659 684.387 391.019 697.942C370.055 670.904 352.087 642.417 335.905 611.769C419.813 574.217 503.344 536.834 586.912 499.434C593.307 521.874 599.495 543.766 605.813 565.62C607.335 570.887 609.077 576.113 611.126 581.194C612.329 584.174 611.774 585.509 608.898 586.958C584.83 599.094 560.843 611.389 536.837 623.645C514.906 634.842 492.982 646.051 470.717 657.408Z" fill="#3CABC3"/>
</svg>
