<svg width="733" height="580" viewBox="0 0 733 580" fill="none" xmlns="http://www.w3.org/2000/svg">
<path d="M221.113 495.259C206.631 481.775 192.411 468.531 177.467 454.613C249.089 418.114 319.31 382.33 390.038 346.286C391.861 349.632 393.588 352.775 395.289 355.932C408.399 380.258 424.133 402.732 443.553 422.421C478.249 457.595 519.953 479.762 568.656 488.492C591.89 492.657 615.293 493.514 638.803 491.45C640.284 491.32 641.752 491.042 643.094 490.851C643.345 490.336 643.651 490.017 643.608 489.754C641.905 479.312 640.72 480.474 651.436 476.289C655.619 474.655 659.837 473.1 663.969 471.345C668.434 469.448 672.716 468.091 677.06 471.784C677.726 472.351 679.556 471.923 680.683 471.509C686.928 469.214 693.111 466.75 699.337 464.403C705.421 462.111 708.906 463.262 712.492 468.698C717.903 476.9 723.318 485.099 728.678 493.335C735.063 503.144 732.468 511.285 721.629 515.569C714.203 518.504 706.79 521.474 699.318 524.286C696.935 525.183 695.379 526.014 695.688 529.147C696.116 533.471 693.567 536.469 689.726 538.052C681.884 541.285 674.015 544.482 666.026 547.325C659.136 549.777 656.01 547.438 652.437 538.086C635.173 544.054 618.037 550.4 600.637 555.914C547.066 572.893 492.283 582.074 435.932 579.469C364.88 576.184 300.375 553.776 242.729 511.983C235.452 506.707 228.485 501.003 221.113 495.259Z" fill="#3BABC3"/>
<path d="M114.487 288.226C104.431 292.752 94.6498 296.973 85.0236 301.52C81.7045 303.088 80.2132 302.44 78.4893 299.238C65.8767 275.806 57.1825 250.873 49.8039 225.424C47.4501 217.306 45.2775 209.135 42.937 200.682C41.7689 200.971 40.6847 201.19 39.6311 201.509C32.2055 203.761 28.4351 202.33 24.7651 195.634C17.4064 182.208 10.0971 168.755 2.79433 155.298C-2.10317 146.273 -0.651792 138.709 7.8516 132.798C12.0285 129.895 16.9149 127.93 21.6371 125.907C117.95 84.6331 214.284 43.4095 310.626 2.20292C312.598 1.35928 314.663 0.587372 316.762 0.21177C323.204 -0.940979 327.963 2.69183 328.376 9.17371C328.682 13.9887 328.407 18.8402 328.698 23.6569C330.212 48.7324 331.492 73.8284 333.494 98.8661C335.55 124.57 338.424 150.208 340.776 175.89C341.745 186.471 341.575 186.54 332.095 190.786C259.677 223.219 187.249 255.631 114.487 288.226Z" fill="#3BABC3"/>
<path d="M232.717 383.408C206.019 396.975 179.659 410.387 153.019 423.942C132.055 396.904 114.087 368.417 97.9048 337.769C181.813 300.217 265.344 262.834 348.912 225.434C355.307 247.874 361.495 269.766 367.813 291.62C369.335 296.887 371.077 302.113 373.126 307.194C374.329 310.174 373.774 311.509 370.898 312.958C346.83 325.094 322.843 337.389 298.837 349.645C276.906 360.842 254.982 372.051 232.717 383.408Z" fill="#3CABC3"/>
</svg>
