<svg width="248" height="248" viewBox="0 0 248 248" fill="none" xmlns="http://www.w3.org/2000/svg">
<g clip-path="url(#clip0_15_9)">
<circle cx="124" cy="124" r="124" fill="#EC6744"/>
<path fill-rule="evenodd" clip-rule="evenodd" d="M156 156.87C144.954 156.87 136 147.843 136 136.708C136 125.572 144.954 116.545 156 116.545C167.046 116.545 176 125.572 176 136.708C176 147.843 167.046 156.87 156 156.87ZM161.887 98.1066V80.3428C166.544 78.1528 169.806 73.4623 169.806 68.0188V67.6087C169.806 60.0959 163.632 53.9492 156.087 53.9492H155.677C148.131 53.9492 141.958 60.0959 141.958 67.6087V68.0188C141.958 73.4623 145.22 78.1547 149.877 80.3448V98.1066C142.943 99.1738 136.608 102.021 131.383 106.212L82.3978 68.2717C82.7211 67.0358 82.9482 65.7636 82.9501 64.4262C82.9578 55.9189 76.0415 49.0115 67.4933 49C58.949 48.9904 52.0096 55.8786 52 64.3878C51.9904 72.8971 58.9067 79.8044 67.4548 79.814C70.2394 79.8178 72.8181 79.0303 75.0774 77.7504L123.262 115.073C119.165 121.231 116.764 128.608 116.764 136.55C116.764 144.864 119.402 152.555 123.859 158.88L109.207 173.471C108.048 173.124 106.847 172.883 105.573 172.883C98.5512 172.883 92.8569 178.55 92.8569 185.542C92.8569 192.536 98.5512 198.203 105.573 198.203C112.597 198.203 118.29 192.536 118.29 185.542C118.29 184.277 118.047 183.08 117.699 181.926L132.193 167.495C138.773 172.494 146.967 175.498 155.883 175.498C177.488 175.498 195 158.06 195 136.55C195 117.077 180.632 100.99 161.887 98.1066Z" fill="white"/>
</g>
<defs>
<clipPath id="clip0_15_9">
<rect width="248" height="248" fill="white"/>
</clipPath>
</defs>
</svg>
