<svg width="51" height="54" viewBox="0 0 51 54" fill="none" xmlns="http://www.w3.org/2000/svg">
<path d="M11.5456 27.9803C11.1499 27.9604 10.7531 27.9873 10.3636 28.0603C9.71387 28.1651 9.09147 28.3982 8.53269 28.746C7.97391 29.0938 7.48993 29.5493 7.10895 30.086C6.72797 30.6226 6.4576 31.2298 6.31361 31.872C6.16961 32.5142 6.15486 33.1787 6.27022 33.8267C6.5534 36.499 9.4025 38.7525 12.04 38.8196C12.3107 38.8264 12.5815 38.8085 12.8489 38.7659C15.703 38.3039 16.4502 35.3628 15.9798 32.4739C15.4484 29.2121 13.1236 28.0622 11.5456 27.9803ZM14.3422 35.7083C14.2217 35.8887 14.0545 36.0329 13.8584 36.1256C13.6623 36.2183 13.4447 36.256 13.2288 36.2346C12.8494 36.2045 12.4955 36.0314 12.239 35.7502C11.9824 35.469 11.8423 35.1009 11.847 34.7203C11.8404 34.2131 11.9382 33.71 12.1343 33.2422C12.2567 32.945 12.2685 32.6137 12.1674 32.3086C12.0664 32.0035 11.8592 31.7448 11.5836 31.5794C11.2449 31.3695 10.8386 31.2975 10.4484 31.3784C10.0705 31.451 9.73652 31.6699 9.51927 31.9875C9.37262 32.2246 9.25814 32.4801 9.17882 32.7474C9.16336 32.7942 9.15109 32.8309 9.14177 32.8548C9.01245 33.1846 8.80609 33.281 8.66655 33.2631C8.61517 33.2537 8.56757 33.2297 8.52945 33.194C8.49133 33.1583 8.46429 33.1123 8.45155 33.0617C8.37917 32.6214 8.41309 32.1702 8.55047 31.7457C8.68785 31.3212 8.92472 30.9357 9.24132 30.6214C9.51706 30.3462 9.85197 30.1376 10.2205 30.0114C10.5891 29.8853 10.9816 29.8449 11.3681 29.8934C11.774 29.9422 12.162 30.089 12.4984 30.3213C12.8349 30.5535 13.1097 30.8641 13.2993 31.2264C13.4816 31.6623 13.5554 32.136 13.5142 32.6068C13.4731 33.0775 13.3182 33.5313 13.0629 33.9289C13.0306 33.9977 13.0011 34.0607 12.9759 34.117C12.8841 34.2728 12.8334 34.4494 12.8286 34.6302C12.8238 34.8109 12.8651 34.9899 12.9486 35.1504C13.022 35.2482 13.1179 35.3269 13.2281 35.38C13.3384 35.433 13.4597 35.4588 13.582 35.4551C13.6987 35.4536 13.8149 35.4381 13.9279 35.409C14.0745 35.3766 14.2261 35.3432 14.3184 35.453C14.349 35.4875 14.3678 35.5308 14.3721 35.5767C14.3764 35.6227 14.3659 35.6687 14.3422 35.7083Z" fill="white"/>
<path d="M48.018 41.1884C48.6135 39.6773 48.9577 38.079 49.0371 36.4568C49.0371 34.4623 47.9079 33.6356 47.1888 33.6356C47.1668 33.5586 47.0246 33.0385 46.8287 32.4125C46.7168 32.0494 46.5838 31.6932 46.4306 31.3455C47.0191 30.5325 47.2682 29.5225 47.1251 28.5292C47.0073 27.7632 46.6431 27.0566 46.0877 26.5162C45.0334 25.6213 43.7754 24.9991 42.4243 24.7044C42.2207 24.6475 41.5498 24.4636 41.4909 24.4456C41.4863 24.4072 41.4419 22.2485 41.4014 21.3217C41.384 20.3924 41.2455 19.4693 40.9894 18.5758C40.6711 17.2936 40.0132 16.1208 39.0848 15.1808C41.4093 12.7747 42.8604 10.1244 42.8568 7.85065C42.8502 3.47797 37.4724 2.15475 30.8452 4.89514C30.838 4.89822 29.4509 5.48541 29.441 5.49046C29.4348 5.48431 26.9024 3.00339 26.8644 2.97002C19.3086 -3.61101 -4.31609 22.6106 3.23718 28.9791L4.88787 30.3754C4.44244 31.569 4.28517 32.8509 4.42887 34.1168C4.65262 35.9584 5.56295 37.6478 6.978 38.8475C8.35151 40.0941 10.126 40.8075 11.9802 40.8587C14.9195 47.6225 21.6352 51.7717 29.5097 52.0053C37.9565 52.2557 45.0471 48.298 48.018 41.1884ZM49.7518 33.1839C50.4754 34.1177 50.8477 35.2762 50.8037 36.4568C50.7276 38.2982 50.3425 40.1138 49.6645 41.8276L49.6485 41.8678C48.1158 45.5535 45.4397 48.6495 42.0146 50.6996C38.4496 52.7731 34.3878 53.8381 30.2641 53.7807C29.9972 53.7807 29.7253 53.7765 29.4573 53.7686C25.3874 53.6836 21.4144 52.5109 17.9507 50.3721C14.9018 48.4615 12.4345 45.7522 10.8166 42.5384C8.95268 42.2489 7.21251 41.4256 5.80653 40.1681C4.05847 38.6747 2.93867 36.5764 2.67112 34.2928C2.55189 33.1833 2.61621 32.0618 2.8615 30.9732L2.09518 30.3252C1.4749 29.7894 0.970813 29.1324 0.61396 28.3946C0.257107 27.6567 0.0550353 26.8537 0.0201825 26.0348C-0.0426922 24.335 0.251075 22.6409 0.882573 21.0615C2.45565 16.7668 6.07446 11.6528 10.5636 7.38131C12.5668 5.43736 14.7891 3.73262 17.1857 2.30136C19.1845 1.02288 21.4802 0.283457 23.8495 0.15499C25.3776 0.115135 26.866 0.644622 28.0256 1.64062C28.0918 1.69836 29.0839 2.66862 29.8363 3.40572C30.0252 3.32604 30.161 3.26872 30.165 3.26721C32.3911 2.29757 34.7834 1.76667 37.2107 1.70362C41.7081 1.70362 44.6178 4.1154 44.6235 7.84799C44.627 10.1511 43.4962 12.733 41.4116 15.2324C41.9787 16.1093 42.4078 17.0682 42.6837 18.0755C42.9798 19.1066 43.142 20.1716 43.1662 21.2442C43.1865 21.7056 43.2071 22.446 43.2238 23.0995C44.7618 23.4888 46.1831 24.2435 47.3669 25.2997C48.1695 26.0959 48.6959 27.1284 48.8688 28.2457C49.0426 29.3486 48.8722 30.4782 48.3808 31.4807C48.4245 31.6063 48.47 31.7426 48.5153 31.887C48.5547 32.013 48.5918 32.1344 48.6265 32.2497C49.0595 32.484 49.4418 32.8015 49.7518 33.1839Z" fill="white"/>
<path d="M44.3973 31.0001C44.6838 30.7309 44.9072 30.4017 45.0516 30.036C45.1961 29.6704 45.2579 29.2773 45.2326 28.885C45.1754 28.4896 44.9909 28.1235 44.707 27.8423C43.8745 27.1511 42.8838 26.6768 41.8233 26.4614C41.339 26.324 41.0103 26.236 40.6563 26.1182C40.0266 25.9086 39.7155 25.7399 39.645 24.5429C39.6142 24.0195 39.5239 22.1959 39.4914 21.4424C39.434 20.1219 39.2767 18.3171 38.1692 17.5719C37.8875 17.385 37.5599 17.2792 37.2221 17.2659C37.033 17.2543 36.8433 17.273 36.6601 17.3215C36.098 17.4528 35.5863 17.7452 35.1878 18.1628C34.6719 18.634 34.0636 18.9926 33.4017 19.2161C32.7397 19.4395 32.0385 19.5229 31.3426 19.4608C30.5674 19.4279 29.7459 19.3059 28.8042 19.2494C28.621 19.2386 28.4372 19.2272 28.2538 19.2174C27.037 19.2534 25.8736 19.7255 24.9759 20.5477C24.0781 21.3699 23.5059 22.4875 23.3634 23.6964C22.8243 27.4464 25.5104 29.3843 26.2858 30.5214C26.4057 30.6666 26.4799 30.844 26.4992 31.0312C26.4791 31.2389 26.3803 31.4311 26.2232 31.5684L26.2234 31.5695C25.1496 32.7783 24.3957 34.2368 24.0305 35.8119C23.6653 37.387 23.7006 39.0285 24.133 40.5865C24.2354 40.9607 24.3668 41.3263 24.5259 41.6801C26.4858 46.3107 32.5659 48.4672 38.5059 46.506C39.284 46.249 40.039 45.9265 40.7626 45.542C42.0649 44.891 43.2363 44.0059 44.2183 42.931C45.7504 41.3771 46.7566 39.3819 47.0955 37.2261C47.2744 36.0328 47.0124 35.5709 46.6556 35.3487C46.4037 35.207 46.1118 35.1532 45.8259 35.1956C45.6747 34.2588 45.4093 33.344 45.0356 32.4716L44.3973 31.0001Z" fill="white"/>
<path d="M34.6629 13.1158C34.7587 13.1378 34.8196 12.9723 34.7339 12.9242C33.3148 12.1888 31.7496 11.7792 30.1522 11.7252C30.1369 11.7249 30.1219 11.7205 30.1089 11.7123C30.0959 11.704 30.0855 11.6924 30.0787 11.6786C30.0719 11.6648 30.0691 11.6494 30.0705 11.6341C30.0719 11.6189 30.0775 11.6042 30.0867 11.5919C30.335 11.2674 30.6248 10.9769 30.9489 10.7279C30.9634 10.7167 30.9739 10.7011 30.9789 10.6834C30.9839 10.6657 30.9831 10.6469 30.9767 10.6297C30.9702 10.6125 30.9584 10.5978 30.943 10.5878C30.9276 10.5778 30.9094 10.573 30.891 10.5741C28.9352 10.7662 27.0549 11.429 25.411 12.506C25.397 12.5155 25.3805 12.5205 25.3635 12.5205C25.3466 12.5204 25.3301 12.5153 25.3162 12.5058C25.3022 12.4962 25.2914 12.4827 25.2852 12.467C25.279 12.4513 25.2776 12.4341 25.2813 12.4176C25.4137 11.9237 25.6086 11.4488 25.8612 11.0043C25.8695 10.9891 25.8727 10.9715 25.8704 10.9543C25.868 10.9371 25.8601 10.9211 25.848 10.9087C25.8358 10.8963 25.82 10.8881 25.8028 10.8854C25.7856 10.8826 25.768 10.8855 25.7526 10.8935C23.3787 12.1973 21.263 13.9238 19.5095 15.9879C19.4958 16.0036 19.4884 16.0238 19.4886 16.0447C19.4888 16.0655 19.4967 16.0856 19.5107 16.101C19.5247 16.1164 19.544 16.1261 19.5647 16.1283C19.5854 16.1305 19.6062 16.125 19.6232 16.1128C21.6552 14.6929 23.9444 13.6824 26.3628 13.138C29.0928 12.5082 31.9295 12.5007 34.6629 13.1158Z" fill="white"/>
<path d="M27.6712 6.41767C27.6712 6.41767 25.6148 4.03684 24.994 3.86123C21.1747 2.83062 12.9246 8.51223 7.65687 16.0187C5.52542 19.0559 2.47421 24.4343 3.93321 27.2007C4.45178 27.8218 5.03637 28.3846 5.67666 28.8793C6.65421 27.5091 8.12544 26.5718 9.7804 26.2649C11.8574 20.4582 15.5033 15.3409 20.3132 11.4814C22.6212 9.59241 25.0824 7.89866 27.6712 6.41767Z" fill="white"/>
<path d="M14.2039 35.6051C14.2335 35.6409 14.2516 35.6849 14.2558 35.7313C14.2599 35.7776 14.2499 35.8241 14.2271 35.8647C14.1163 36.0446 13.9573 36.1899 13.7683 36.2844C13.5792 36.3788 13.3676 36.4186 13.1571 36.3991C12.7821 36.3587 12.4364 36.1775 12.1899 35.892C11.9434 35.6065 11.8144 35.238 11.8291 34.8611C11.8228 34.3475 11.9165 33.8375 12.1052 33.3597C12.2243 33.0603 12.2367 32.7291 12.1404 32.4216C12.0441 32.1142 11.8449 31.8492 11.5762 31.6714C11.4172 31.5662 11.2388 31.4939 11.0514 31.4588C10.864 31.4237 10.6715 31.4265 10.4852 31.4671C10.3027 31.5055 10.1297 31.58 9.97644 31.6862C9.82316 31.7924 9.69266 31.9282 9.59263 32.0856C9.45113 32.3279 9.34112 32.5872 9.26524 32.8573C9.2506 32.9048 9.23879 32.9422 9.22984 32.9663C9.10553 33.3016 8.90735 33.3993 8.77307 33.3814C8.70959 33.3726 8.62231 33.3301 8.56636 33.1767C8.49613 32.733 8.528 32.2792 8.65954 31.8497C8.79108 31.4202 9.01883 31.0263 9.32548 30.6981C9.583 30.4216 9.90266 30.2103 10.258 30.0818C10.6134 29.9533 10.9942 29.9112 11.3691 29.9591C11.7661 30.0137 12.1435 30.1659 12.4673 30.4021C12.7912 30.6383 13.0514 30.9511 13.2246 31.3126C13.4001 31.7568 13.4709 32.2355 13.4316 32.7115C13.3922 33.1875 13.2438 33.6481 12.9978 34.0575C12.9667 34.1271 12.9382 34.1909 12.9142 34.2487C12.8257 34.4086 12.7771 34.5875 12.7725 34.7702C12.768 34.9529 12.8076 35.134 12.8879 35.2981C12.9559 35.396 13.047 35.4754 13.1532 35.5294C13.2594 35.5834 13.3774 35.6102 13.4965 35.6075C13.6088 35.6059 13.7204 35.5901 13.8287 35.5605C13.9697 35.5275 14.1154 35.4936 14.2039 35.6051ZM48.9611 36.4728C48.8823 38.0913 48.5404 39.6861 47.9487 41.1946C44.9971 48.2891 37.953 52.2387 29.5615 51.9887C21.7388 51.7557 15.0668 47.6151 12.1467 40.8655C10.3033 40.8139 8.53973 40.1016 7.17752 38.8585C5.77034 37.6589 4.86623 35.9736 4.64499 34.1377C4.50221 32.8747 4.65841 31.5958 5.10099 30.4043L3.46106 29.0108C-4.04265 22.6557 19.427 -3.51086 26.9336 3.05649C26.9714 3.08955 29.4871 5.56549 29.4934 5.57159C29.5034 5.56649 30.8814 4.98037 30.8884 4.97751C37.4722 2.24282 42.8148 3.56323 42.8215 7.92651C42.8249 10.1957 41.3834 12.8406 39.0743 15.2414C39.9971 16.1807 40.6505 17.3508 40.9661 18.6292C41.2207 19.521 41.3583 20.4422 41.3755 21.3696C41.4155 22.2943 41.4599 24.4486 41.4644 24.4869C41.523 24.5047 42.1895 24.6881 42.3916 24.7451C43.7348 25.0397 44.9849 25.6607 46.0311 26.5533C46.5834 27.0933 46.9451 27.7982 47.0617 28.5618C47.204 29.5526 46.9568 30.5599 46.3719 31.3722C46.5241 31.7193 46.6562 32.0749 46.7674 32.4371C46.9618 33.062 47.1032 33.5806 47.1249 33.6575C47.8392 33.6575 48.9611 34.4824 48.9611 36.4728ZM15.8003 32.5798C15.29 29.2669 13.0558 28.0994 11.5398 28.0161C11.1592 27.9959 10.7777 28.0231 10.4038 28.0971C7.69799 28.6446 6.16977 30.9534 6.47048 33.9534C6.68949 35.2991 7.35585 36.5316 8.36188 37.4518C9.36791 38.3719 10.6548 38.926 12.0147 39.0244C12.2749 39.0314 12.5352 39.013 12.7919 38.9697C15.5344 38.5006 16.2524 35.5136 15.8003 32.5798ZM20.4252 11.5498C22.7173 9.66539 25.1623 7.97519 27.735 6.49669C27.735 6.49669 25.6923 4.12096 25.0754 3.94588C21.2812 2.9171 13.0849 8.58688 7.8518 16.0775C5.73435 19.1083 2.70317 24.4757 4.15244 27.2361C4.66729 27.8557 5.24807 28.4173 5.88452 28.9112C6.85345 27.5454 8.31545 26.6099 9.96151 26.3024C12.0209 20.5133 15.6425 15.4072 20.4252 11.5498ZM28.6716 37.7659C28.7721 38.2062 28.9897 38.6111 29.3014 38.9379C29.6131 39.2648 30.0073 39.5013 30.4423 39.6226C30.8948 39.7913 31.3618 39.9185 31.8373 40.0026C37.8391 41.0381 43.45 37.5961 44.7133 36.7291C44.8081 36.664 44.8708 36.7275 44.7947 36.8424C44.7567 36.9036 44.7154 36.9626 44.671 37.0194C43.1249 39.0198 38.9683 41.3363 33.5605 41.3355C31.2019 41.3351 28.8446 40.5016 27.9791 39.221C26.6362 37.2338 27.9125 34.3334 30.1501 34.6357C30.1527 34.6361 30.9157 34.7228 31.1302 34.7467C34.6084 35.0812 38.1142 34.5184 41.313 33.1122C44.3658 31.6908 45.519 30.1265 45.346 28.8602C45.2882 28.4669 45.1033 28.1034 44.8196 27.8249C43.9848 27.1377 42.9936 26.6668 41.9335 26.4537C41.4487 26.3171 41.1197 26.23 40.7652 26.1129C40.1351 25.9047 39.8236 25.7371 39.753 24.5486C39.7223 24.0288 39.6319 22.218 39.5992 21.4696C39.5416 20.1584 39.3845 18.3661 38.2757 17.6261C37.9934 17.4403 37.6656 17.3352 37.3279 17.3222C37.1386 17.3107 36.9486 17.3294 36.7651 17.3775C36.2035 17.5075 35.6916 17.7978 35.2917 18.213C34.7735 18.6814 34.1641 19.0377 33.5017 19.2594C32.8393 19.4812 32.1383 19.5637 31.4425 19.5018C30.6667 19.4694 29.8445 19.3481 28.9021 19.292C28.7188 19.2812 28.5346 19.2698 28.3509 19.2604C27.1375 19.2922 25.9758 19.7588 25.0774 20.5751C24.179 21.3914 23.6036 22.5032 23.456 23.7081C22.9164 27.432 25.605 29.3563 26.3812 30.4855C26.5011 30.6293 26.5755 30.8056 26.5948 30.9918C26.5743 31.1984 26.4755 31.3892 26.3185 31.5251V31.5263C25.2449 32.7224 24.4903 34.17 24.1246 35.7351C23.7589 37.3003 23.7939 38.9324 24.2263 40.4804C24.3289 40.8521 24.4604 41.2152 24.6196 41.5665C26.5814 46.1649 32.6672 48.3061 38.6128 46.3583C39.3913 46.1034 40.1469 45.7834 40.8716 45.4016C42.1736 44.7562 43.3461 43.8773 44.3307 42.8085C45.862 41.2696 46.8696 39.2874 47.2105 37.1434C47.3895 35.9581 47.1275 35.4998 46.7702 35.2791C46.5177 35.1384 46.2258 35.0849 45.9397 35.1269C45.7883 34.1961 45.5227 33.2876 45.1488 32.4218C43.4508 33.7031 41.5312 34.6607 39.4862 35.2467C37.0258 35.9419 34.4662 36.2195 31.914 36.068C30.2721 35.9349 29.1858 35.4541 28.7772 36.786C31.2609 37.6165 33.898 37.8856 36.4982 37.5737C36.5165 37.5718 36.535 37.5736 36.5526 37.5789C36.5702 37.5842 36.5866 37.5929 36.6008 37.6045C36.6151 37.6162 36.6269 37.6305 36.6356 37.6467C36.6442 37.6629 36.6496 37.6807 36.6514 37.699C36.6542 37.7298 36.6473 37.7606 36.6318 37.7873C36.6163 37.814 36.5928 37.8352 36.5647 37.848C36.5647 37.848 33.515 39.2683 28.6716 37.7659ZM19.7397 16.1714C21.7569 14.7552 24.0314 13.7469 26.4353 13.203C29.1471 12.5746 31.9659 12.567 34.6811 13.1808C34.7761 13.2026 34.8367 13.0375 34.7517 12.9898C33.3427 12.2562 31.7874 11.8472 30.1998 11.793C30.1845 11.7928 30.1696 11.7883 30.1567 11.7801C30.1438 11.7719 30.1334 11.7602 30.1266 11.7465C30.1199 11.7328 30.1171 11.7174 30.1185 11.7022C30.1199 11.687 30.1255 11.6724 30.1347 11.6602C30.3813 11.3365 30.6693 11.0466 30.9915 10.7979C31.0059 10.7867 31.0164 10.7711 31.0213 10.7535C31.0263 10.7359 31.0255 10.7171 31.0191 10.7C31.0127 10.6828 31.0009 10.6682 30.9856 10.6582C30.9703 10.6481 30.9522 10.6433 30.9339 10.6443C28.9898 10.8365 27.1214 11.4981 25.4896 12.5723C25.4757 12.5817 25.4592 12.5867 25.4424 12.5867C25.4255 12.5867 25.4091 12.5816 25.3952 12.572C25.3813 12.5625 25.3706 12.5491 25.3645 12.5334C25.3583 12.5177 25.3571 12.5005 25.3608 12.4841C25.4922 11.9915 25.6858 11.5176 25.9368 11.0739C25.9452 11.0587 25.9484 11.0413 25.9461 11.0241C25.9437 11.007 25.936 10.991 25.9239 10.9786C25.9118 10.9662 25.8961 10.958 25.879 10.9552C25.8619 10.9524 25.8444 10.9552 25.829 10.9631C23.4691 12.2657 21.3671 13.9887 19.6268 16.0472C19.6132 16.0628 19.6058 16.0829 19.606 16.1036C19.6062 16.1243 19.614 16.1443 19.6279 16.1596C19.6419 16.1749 19.661 16.1846 19.6816 16.1868C19.7022 16.189 19.7229 16.1835 19.7397 16.1714ZM35.5446 28.812C35.7089 28.916 35.9057 28.9558 36.0975 28.924C36.2893 28.8921 36.4626 28.7907 36.5844 28.6392C36.7358 28.3462 36.516 27.9488 36.0933 27.7514C35.929 27.6474 35.7321 27.6076 35.5403 27.6395C35.3485 27.6715 35.1752 27.7729 35.0535 27.9246C34.9019 28.2174 35.1219 28.6148 35.5446 28.812ZM36.8413 24.0606C36.9427 24.5881 37.1615 25.0861 37.4815 25.5176C37.8121 25.4769 38.1464 25.4769 38.477 25.5176C38.6704 24.9385 38.6873 24.3151 38.5257 23.7264C38.2867 22.6402 37.9634 21.9828 37.2952 22.085C36.6272 22.1874 36.6025 22.9744 36.8413 24.0606ZM38.2627 26.5558C38.0942 26.5074 37.9148 26.5131 37.7497 26.5719C37.5845 26.6308 37.442 26.7399 37.3421 26.884C37.2422 27.028 37.1899 27.1998 37.1926 27.3751C37.1953 27.5504 37.2529 27.7204 37.3572 27.8613C37.4616 28.0022 37.6074 28.1068 37.7743 28.1606C37.9412 28.2143 38.1207 28.2144 38.2876 28.1608C38.4545 28.1073 38.6005 28.0028 38.705 27.862C38.8095 27.7212 38.8672 27.5512 38.8701 27.376C38.8943 27.1873 38.8446 26.9965 38.7314 26.8437C38.6182 26.6908 38.4503 26.5876 38.2627 26.5558Z" fill="black"/>
<path d="M27.1694 26.4587C27.0628 26.4437 27.0174 26.3981 27.004 26.3377C26.9626 26.1503 27.2508 25.8419 27.5546 25.6193C27.998 25.2952 28.5173 25.0905 29.0626 25.0251C29.6079 24.9596 30.1609 25.0355 30.6684 25.2455C31.1426 25.4412 31.5503 25.7693 31.8428 26.1907C31.9514 26.3679 31.9724 26.5053 31.9022 26.5773C31.7928 26.6927 31.5138 26.5605 31.0596 26.3613C30.514 26.0936 29.911 25.9638 29.3036 25.9831C28.5838 26.1016 27.8713 26.2603 27.1694 26.4587ZM31.6964 27.3907C31.5001 27.1844 31.2558 27.03 30.9852 26.9413C30.7146 26.8526 30.4263 26.8324 30.146 26.8825C29.7326 26.9265 29.341 27.0897 29.0188 27.3523C28.8686 27.4601 28.7654 27.6213 28.7304 27.8027C28.7296 27.8229 28.7332 27.843 28.741 27.8617C28.7488 27.8803 28.7606 27.897 28.7756 27.9105C28.8022 27.9347 28.837 27.948 28.873 27.9475C29.0217 27.9257 29.1671 27.8854 29.3058 27.8275C29.913 27.5987 30.5691 27.5306 31.2104 27.6297C31.5076 27.6631 31.648 27.6817 31.7132 27.5797C31.7299 27.5503 31.7373 27.5164 31.7343 27.4826C31.7313 27.4489 31.718 27.4168 31.6964 27.3907Z" fill="black"/>
<path d="M30.8548 27.6631C31.0424 26.9957 31.0531 26.2909 30.886 25.6181C30.6442 24.5302 30.2787 23.9086 29.6011 24.011C28.9236 24.1133 28.906 24.99 29.1244 26.0825C29.2248 26.5831 29.4204 27.0598 29.7006 27.4867C30.2397 28.239 30.6062 28.0443 30.8548 27.6631Z" fill="black"/>
</svg>
