<svg width="62" height="62" viewBox="0 0 62 62" fill="none" xmlns="http://www.w3.org/2000/svg">
<path d="M30.77 61.54C47.76 61.54 61.54 47.76 61.54 30.77C61.54 13.78 47.76 0 30.77 0C13.78 0 0 13.78 0 30.77C0 47.76 13.77 61.54 30.77 61.54Z" fill="#2CA01C"/>
<path d="M20.51 18.8C13.9 18.8 8.53999 24.16 8.53999 30.77C8.53999 37.38 13.89 42.73 20.51 42.73H22.22V38.29H20.51C16.36 38.29 12.99 34.92 12.99 30.77C12.99 26.62 16.36 23.25 20.51 23.25H24.62V46.5C24.62 48.95 26.61 50.94 29.06 50.94V18.8H20.51ZM41.03 42.73C47.64 42.73 53 37.37 53 30.77C53 24.17 47.65 18.81 41.03 18.81H39.32V23.25H41.03C45.18 23.25 48.55 26.62 48.55 30.77C48.55 34.92 45.18 38.29 41.03 38.29H36.92V15.04C36.92 12.59 34.93 10.6 32.48 10.6V42.73H41.03Z" fill="white"/>
</svg>
