<svg width="246" height="246" viewBox="0 0 246 246" fill="none" xmlns="http://www.w3.org/2000/svg">
<circle cx="123" cy="123" r="123" fill="#E4F223"/>
<path d="M153.753 60C154.925 60.5858 155.51 61.7573 156.682 62.3431C162.54 68.2008 168.251 73.9121 173.523 79.1841C172.937 96.0251 167.226 111.548 159.025 126.046C145.113 149.77 122.561 167.636 95.908 175.837C88.4393 178.18 80.2385 179.937 72.7699 179.937C66.9121 174.079 61.7866 168.954 55.9289 163.096C54.7573 161.925 53.5858 161.339 53 159.582C77.3096 157.824 101.033 147.427 118.314 130.586C130.469 119.017 140.866 104.519 146.724 88.9958C150.824 80.3556 153.167 70.3975 153.753 60Z" fill="#010202"/>
<path d="M125.343 174.079C131.201 169.979 136.912 165.439 142.184 160.167C152.582 160.167 162.979 160.167 173.377 160.167C179.674 166.464 186.703 173.494 193 179.791C188.9 180.377 184.36 179.791 180.259 179.791C160.636 179.791 140.28 179.791 120.657 179.791C119.485 179.791 117.728 179.791 116.557 179.791C119.046 178.033 122.561 176.276 125.343 174.079Z" fill="#010202"/>
</svg>
