<svg width="246" height="239" viewBox="0 0 246 239" fill="none" xmlns="http://www.w3.org/2000/svg">
<ellipse cx="123" cy="119.5" rx="123" ry="119.5" fill="#E4F223"/>
<path d="M153.473 59C154.653 59.59 155.243 60.7699 156.423 61.3598C162.322 67.2594 168.074 73.0115 173.384 78.3211C172.794 95.2824 167.042 110.916 158.782 125.518C144.771 149.411 122.058 167.405 95.2144 175.664C87.6925 178.024 79.433 179.794 71.9111 179.794C66.0115 173.894 60.8494 168.732 54.9498 162.833C53.7699 161.653 52.59 161.063 52 159.293C76.4833 157.523 100.377 147.051 117.78 130.09C130.022 118.438 140.494 103.837 146.393 88.2029C150.523 79.501 152.883 69.4718 153.473 59Z" fill="#010202"/>
<path d="M124.86 173.894C130.759 169.765 136.512 165.192 141.821 159.883C152.293 159.883 162.765 159.883 173.236 159.883C179.578 166.225 186.658 173.304 193 179.646C188.87 180.236 184.298 179.646 180.168 179.646C160.405 179.646 139.904 179.646 120.14 179.646C118.96 179.646 117.19 179.646 116.01 179.646C118.518 177.877 122.058 176.107 124.86 173.894Z" fill="#010202"/>
</svg>
