<svg width="136" height="151" viewBox="0 0 136 151" fill="none" xmlns="http://www.w3.org/2000/svg">
<mask id="mask0_34_13" style="mask-type:luminance" maskUnits="userSpaceOnUse" x="71" y="0" width="65" height="151">
<path d="M135.76 36.86L71.29 0.0200195V151L97.05 136.04V93.57L116.5 104.82L116.39 75.77L97.05 64.72V47.85L135.85 70.27L135.76 36.86Z" fill="white"/>
</mask>
<g mask="url(#mask0_34_13)">
<path d="M153.39 -0.530029H-4.92004V151.19H153.39V-0.530029Z" fill="url(#paint0_linear_34_13)"/>
</g>
<mask id="mask1_34_13" style="mask-type:luminance" maskUnits="userSpaceOnUse" x="0" y="0" width="66" height="151">
<path d="M1.03 36.86L65.5 0.0200195V151L39.74 136.04V47.85L0.940002 70.27L1.03 36.86Z" fill="white"/>
</mask>
<g mask="url(#mask1_34_13)">
<path d="M152.31 -0.530029H-6V151.19H152.31V-0.530029Z" fill="url(#paint1_linear_34_13)"/>
</g>
<defs>
<linearGradient id="paint0_linear_34_13" x1="-4.92004" y1="75.33" x2="153.39" y2="75.33" gradientUnits="userSpaceOnUse">
<stop stop-color="#FF6F00"/>
<stop offset="1" stop-color="#FFA800"/>
</linearGradient>
<linearGradient id="paint1_linear_34_13" x1="-6" y1="75.33" x2="152.32" y2="75.33" gradientUnits="userSpaceOnUse">
<stop stop-color="#FF6F00"/>
<stop offset="1" stop-color="#FFA800"/>
</linearGradient>
</defs>
</svg>
